<?xml version="1.0" encoding="iso-8859-1"?>
<!-- Generator: Adobe Illustrator 19.0.0, SVG Export Plug-In . SVG Version: 6.00 Build 0)  -->
<svg version="1.1" id="Capa_1" xmlns="http://www.w3.org/2000/svg" xmlns:xlink="http://www.w3.org/1999/xlink" x="0px" y="0px"
	 viewBox="0 0 512 512" style="enable-background:new 0 0 512 512;" xml:space="preserve">
<g>
	<g>
		<path d="M482,165v-15h15c8.284,0,15-6.716,15-15v-30c0-6.268-3.896-11.875-9.771-14.059l-242-90
			c-3.386-1.259-7.113-1.255-10.495,0.014l-240,90C3.879,93.151,0,98.747,0,105v30c0,8.284,6.716,15,15,15h15v15
			c0,19.555,12.541,36.228,30,42.42v157.16c-17.459,6.192-30,22.865-30,42.42v17.58C12.541,430.773,0,447.445,0,467v30
			c0,8.284,6.716,15,15,15h482c8.284,0,15-6.716,15-15v-30c0-19.555-12.541-36.228-30-42.42V407c0-19.555-12.541-36.228-30-42.42
			V207.42C469.459,201.228,482,184.555,482,165z M45,120H30v-4.605l225.021-84.383L482,115.425V120h-15H45z M60,407
			c0-8.271,6.729-15,15-15h362c8.271,0,15,6.729,15,15v15H60V407z M90,362V210h30v152H90z M150,362V210h60v152H150z M240,362V210h30
			v152H240z M300,362V210h62v152H300z M392,362V210h30v152H392z M467,452c8.271,0,15,6.729,15,15v15H30v-15c0-8.271,6.729-15,15-15
			H467z M437,180H75c-8.271,0-15-6.729-15-15v-15h392v15C452,173.271,445.271,180,437,180z"/>
	</g>
</g>
<g>
</g>
<g>
</g>
<g>
</g>
<g>
</g>
<g>
</g>
<g>
</g>
<g>
</g>
<g>
</g>
<g>
</g>
<g>
</g>
<g>
</g>
<g>
</g>
<g>
</g>
<g>
</g>
<g>
</g>
</svg>
