<?xml version='1.0' encoding='UTF-8'?>
<svg version="1.1" id="Layer_1" xmlns="http://www.w3.org/2000/svg" xmlns:xlink="http://www.w3.org/1999/xlink" x="0px" y="0px" viewBox="0 0 360 72" enable-background="new 0 0 360 72" xml:space="preserve">
<path fill="#FFFFFF" d="M355.08,36.594l-0.292-0.793h-3.324c-0.096-3.573-1.464-6.98-3.881-10.098  c0.234-0.056,0.474-0.114,0.708-0.169l0.165-0.042c-0.19-0.225-0.389-0.448-0.591-0.672c-0.278,0.067-0.562,0.134-0.843,0.202  c-4.885-5.843-13.468-10.603-24.145-13.41l0.806-0.164l0.145-0.028c-0.274-0.218-0.555-0.431-0.839-0.64l-1.905,0.389  c-6.271-1.489-13.197-2.322-20.48-2.322V9.64c2.7,0,5.23,1.285,7.418,3.521c-2.062,0.127-4.46,0.191-7.445,0.191h-0.395v0.793h0.395  c3.319,0,5.916-0.079,8.135-0.231c3.059,3.532,5.348,8.994,6.316,15.414c-0.987,0.02-1.985,0.033-3.004,0.033h-11.842v0.792h11.842  c1.058,0,2.092-0.012,3.115-0.035c0.241,1.831,0.375,3.732,0.394,5.683h-125v0.793h125c-0.019,1.934-0.152,3.815-0.387,5.63  c-1.024-0.022-2.06-0.036-3.121-0.036h-11.842v0.794h11.842c1.023,0,2.026,0.011,3.014,0.03c-0.963,6.427-3.245,11.901-6.302,15.446  c-2.226-0.154-4.829-0.234-8.159-0.234h-0.395v0.791h0.395c2.999,0,5.401,0.066,7.469,0.193c-2.193,2.252-4.735,3.55-7.443,3.55  v0.791c7.308,0,14.254-0.837,20.541-2.336l1.873,0.382c0.285-0.208,0.562-0.422,0.839-0.638l-0.174-0.037l-0.75-0.152  c10.68-2.817,19.258-7.588,24.125-13.438c0.284,0.068,0.568,0.136,0.846,0.201c0.201-0.225,0.401-0.448,0.59-0.674l-0.204-0.05  c-0.222-0.055-0.449-0.108-0.674-0.163c2.397-3.106,3.753-6.496,3.846-10.051H355.08z M350.67,35.801h-16.496  c-0.044-2.483-0.502-4.887-1.309-7.17c5.037-0.754,9.608-1.716,13.903-2.733C349.201,28.951,350.574,32.296,350.67,35.801z   M321.099,11.975c11.094,2.65,20.049,7.376,25.093,13.244c-4.206,0.99-8.682,1.921-13.605,2.652  c-2.526-6.423-7.894-11.817-14.892-15.202c0.83-0.164,1.69-0.343,2.61-0.532L321.099,11.975z M319.222,11.551  c-0.965,0.199-1.872,0.382-2.754,0.549c-1.69-0.741-3.467-1.362-5.314-1.862C313.938,10.556,316.632,10.997,319.222,11.551z   M304.855,9.871c3.609,0.38,7.038,1.233,10.182,2.488c-1.876,0.323-3.755,0.571-6.028,0.738  C307.736,11.691,306.339,10.596,304.855,9.871z M309.648,13.844c2.516-0.206,4.568-0.516,6.729-0.921  c7.234,3.229,12.808,8.61,15.403,15.068c-4.825,0.686-10.091,1.166-15.955,1.315C314.875,22.967,312.645,17.52,309.648,13.844z   M315.931,30.096c5.934-0.154,11.262-0.646,16.138-1.346c0.81,2.243,1.268,4.607,1.312,7.05h-17.056  C316.306,33.845,316.176,31.935,315.931,30.096z M333.38,36.594c-0.044,2.426-0.493,4.77-1.293,7  c-4.879-0.702-10.208-1.193-16.146-1.348c0.236-1.823,0.364-3.713,0.383-5.652H333.38z M315.833,43.035  c5.872,0.152,11.139,0.631,15.968,1.32c-2.584,6.469-8.15,11.857-15.383,15.099c-2.169-0.408-4.225-0.717-6.75-0.926  C312.664,54.84,314.892,49.385,315.833,43.035z M309.032,59.274c2.279,0.168,4.165,0.419,6.051,0.744  c-3.157,1.265-6.6,2.128-10.229,2.508C306.35,61.796,307.75,60.693,309.032,59.274z M311.154,62.16  c1.863-0.504,3.655-1.133,5.358-1.88c0.89,0.169,1.803,0.353,2.775,0.554C316.679,61.391,313.961,61.839,311.154,62.16z   M321.162,60.407l-0.857-0.174c-0.904-0.187-1.752-0.363-2.568-0.524c6.997-3.398,12.356-8.803,14.873-15.237  c4.927,0.733,9.408,1.668,13.62,2.657C341.2,53.009,332.253,57.748,321.162,60.407z M346.803,46.454  c-4.3-1.018-8.875-1.984-13.919-2.738c0.797-2.271,1.246-4.653,1.29-7.121h16.496C350.574,40.081,349.212,43.412,346.803,46.454z   M271.715,42.144h13.765v4.41h-9.049v6.248h8.664v4.407h-8.664v6.094h9.049v4.41h-13.765V42.144z M288.392,42.144h4.716v25.57  h-4.716V42.144z M215.554,23.061c-1.957,4.522-6.71,7.589-11.808,7.589c-7.321,0-13.34-6.055-13.34-13.377  c0-7.207,5.978-13.188,13.224-13.188c3.184,0,6.171,1.111,8.624,3.183c1.687,1.419,2.53,2.529,3.451,4.637H210.3  c-1.953-2.261-4.217-3.374-6.86-3.374c-4.485,0-8.318,4.063-8.318,8.819c0,4.791,3.948,8.893,8.509,8.893  c2.453,0,4.256-0.881,6.441-3.181H215.554z M216.935,4.583h13.76v4.409h-9.045v6.248h8.663v4.406h-8.663v6.096h9.045v4.409h-13.76  V4.583z M233.61,4.583h7.819c3.106,0,5.022,0.613,6.633,2.071c1.647,1.532,2.567,3.602,2.567,5.827c0,2.49-1.075,4.982-2.799,6.44  c-1.071,0.92-1.991,1.34-3.871,1.802l6.938,9.43h-5.75l-6.824-9.776v9.776h-4.713V4.583z M241.352,16.812  c2.837,0,4.564-1.497,4.564-3.95c0-2.376-1.764-3.87-4.526-3.87h-3.068v7.82H241.352z M261.747,17.157h16.677v0.537  c0,7.054-6.171,12.956-13.57,12.956c-7.591,0-13.725-5.902-13.725-13.263c0-7.283,6.171-13.302,13.61-13.302  c5.442,0,10.771,3.451,12.381,8.012h-5.634c-1.497-2.223-4.065-3.566-6.824-3.566c-2.453,0-4.755,0.958-6.326,2.645  c-1.532,1.612-2.492,4.065-2.492,6.287c0,2.492,1.227,5.099,3.105,6.709c1.573,1.342,3.681,2.071,5.941,2.071  c3.259,0,6.134-1.764,7.553-4.677h-10.697V17.157z M280.188,4.583h13.763v4.409h-9.047v6.248h8.663v4.406h-8.663v6.096h9.047v4.409  h-13.763V4.583z M4.92,4h11.802v64H4.92V4z M30.923,4h14.49c9.882,0,17.654,1.728,23.22,5.182  c8.156,5.181,13.529,15.832,13.529,26.962c0,12.378-6.525,23.507-16.504,28.306C60.477,66.944,54.528,68,45.7,68H30.923V4z   M45.22,56.965c7.485,0,11.706-0.864,15.545-3.166c6.044-3.55,9.594-10.075,9.594-17.464c0-7.964-4.03-15.065-10.459-18.519  c-3.647-1.919-8.156-2.782-14.873-2.782h-2.303v41.931H45.22z M89.652,4h34.445v11.035h-22.643v15.64h21.684V41.71h-21.684v15.256  h22.643V68H89.652V4z M154.518,4h9.211l26.868,64h-13.051l-6.907-16.504h-22.645L140.894,68h-13.051L154.518,4z M165.937,40.462  l-6.814-19.67l-6.811,19.67H165.937z"></path>
</svg>