<?xml version="1.0" encoding="UTF-8" standalone="no"?>
<svg
   xmlns:dc="http://purl.org/dc/elements/1.1/"
   xmlns:cc="http://creativecommons.org/ns#"
   xmlns:rdf="http://www.w3.org/1999/02/22-rdf-syntax-ns#"
   xmlns:svg="http://www.w3.org/2000/svg"
   xmlns="http://www.w3.org/2000/svg"
   xmlns:sodipodi="http://sodipodi.sourceforge.net/DTD/sodipodi-0.dtd"
   xmlns:inkscape="http://www.inkscape.org/namespaces/inkscape"
   version="1.1"
   id="Layer_1"
   x="0px"
   y="0px"
   viewBox="0 0 360 208.80099"
   enable-background="new 0 0 360 72"
   xml:space="preserve"
   sodipodi:docname="idea-white2.svg"
   width="360"
   height="208.80099"
   inkscape:version="0.92.3 (2405546, 2018-03-11)"><metadata
   id="metadata831"><rdf:RDF><cc:Work
       rdf:about=""><dc:format>image/svg+xml</dc:format><dc:type
         rdf:resource="http://purl.org/dc/dcmitype/StillImage" /><dc:title></dc:title></cc:Work></rdf:RDF></metadata><defs
   id="defs829" /><sodipodi:namedview
   pagecolor="#bb133e"
   bordercolor="#666666"
   borderopacity="1"
   objecttolerance="10"
   gridtolerance="10"
   guidetolerance="10"
   inkscape:pageopacity="1"
   inkscape:pageshadow="2"
   inkscape:window-width="1920"
   inkscape:window-height="986"
   id="namedview827"
   showgrid="false"
   showguides="false"
   inkscape:zoom="3.85"
   inkscape:cx="179.02887"
   inkscape:cy="79.350209"
   inkscape:window-x="-11"
   inkscape:window-y="-11"
   inkscape:window-maximized="1"
   inkscape:current-layer="Layer_1" />
<path
   d="m 355.08,99.395 -0.292,-0.793 h -3.324 c -0.096,-3.573 -1.464,-6.98 -3.881,-10.098 0.234,-0.056 0.474,-0.114 0.708,-0.169 l 0.165,-0.042 c -0.19,-0.225 -0.389,-0.448 -0.591,-0.672 -0.278,0.067 -0.562,0.134 -0.843,0.202 -4.885,-5.843 -13.468,-10.603 -24.145,-13.41 l 0.806,-0.164 0.145,-0.028 c -0.274,-0.218 -0.555,-0.431 -0.839,-0.64 l -1.905,0.389 c -6.271,-1.489 -13.197,-2.322 -20.48,-2.322 v 0.793 c 2.7,0 5.23,1.285 7.418,3.521 -2.062,0.127 -4.46,0.191 -7.445,0.191 h -0.395 v 0.793 h 0.395 c 3.319,0 5.916,-0.079 8.135,-0.231 3.059,3.532 5.348,8.994 6.316,15.414 -0.987,0.02 -1.985,0.033 -3.004,0.033 h -11.842 v 0.792 h 11.842 c 1.058,0 2.092,-0.012 3.115,-0.035 0.241,1.831 0.375,3.732 0.394,5.683 h -125 v 0.793 h 125 c -0.019,1.934 -0.152,3.815 -0.387,5.63 -1.024,-0.022 -2.06,-0.036 -3.121,-0.036 h -11.842 v 0.794 h 11.842 c 1.023,0 2.026,0.011 3.014,0.03 -0.963,6.427 -3.245,11.901 -6.302,15.446 -2.226,-0.154 -4.829,-0.234 -8.159,-0.234 h -0.395 v 0.791 h 0.395 c 2.999,0 5.401,0.066 7.469,0.193 -2.193,2.252 -4.735,3.55 -7.443,3.55 v 0.791 c 7.308,0 14.254,-0.837 20.541,-2.336 l 1.873,0.382 c 0.285,-0.208 0.562,-0.422 0.839,-0.638 l -0.174,-0.037 -0.75,-0.152 c 10.68,-2.817 19.258,-7.588 24.125,-13.438 0.284,0.068 0.568,0.136 0.846,0.201 0.201,-0.225 0.401,-0.448 0.59,-0.674 l -0.204,-0.05 c -0.222,-0.055 -0.449,-0.108 -0.674,-0.163 2.397,-3.106 3.753,-6.496 3.846,-10.051 h 3.618 z m -4.41,-0.793 h -16.496 c -0.044,-2.483 -0.502,-4.887 -1.309,-7.17 5.037,-0.754 9.608,-1.716 13.903,-2.733 2.433,3.053 3.806,6.398 3.902,9.903 z M 321.099,74.776 c 11.094,2.65 20.049,7.376 25.093,13.244 -4.206,0.99 -8.682,1.921 -13.605,2.652 -2.526,-6.423 -7.894,-11.817 -14.892,-15.202 0.83,-0.164 1.69,-0.343 2.61,-0.532 z m -1.877,-0.424 c -0.965,0.199 -1.872,0.382 -2.754,0.549 -1.69,-0.741 -3.467,-1.362 -5.314,-1.862 2.784,0.318 5.478,0.759 8.068,1.313 z m -14.367,-1.68 c 3.609,0.38 7.038,1.233 10.182,2.488 -1.876,0.323 -3.755,0.571 -6.028,0.738 -1.273,-1.406 -2.67,-2.501 -4.154,-3.226 z m 4.793,3.973 c 2.516,-0.206 4.568,-0.516 6.729,-0.921 7.234,3.229 12.808,8.61 15.403,15.068 -4.825,0.686 -10.091,1.166 -15.955,1.315 -0.95,-6.339 -3.18,-11.786 -6.177,-15.462 z m 6.283,16.252 c 5.934,-0.154 11.262,-0.646 16.138,-1.346 0.81,2.243 1.268,4.607 1.312,7.05 h -17.056 c -0.019,-1.955 -0.149,-3.865 -0.394,-5.704 z m 17.449,6.498 c -0.044,2.426 -0.493,4.77 -1.293,7 -4.879,-0.702 -10.208,-1.193 -16.146,-1.348 0.236,-1.823 0.364,-3.713 0.383,-5.652 z m -17.547,6.441 c 5.872,0.152 11.139,0.631 15.968,1.32 -2.584,6.469 -8.15,11.857 -15.383,15.099 -2.169,-0.408 -4.225,-0.717 -6.75,-0.926 2.996,-3.688 5.224,-9.143 6.165,-15.493 z m -6.801,16.239 c 2.279,0.168 4.165,0.419 6.051,0.744 -3.157,1.265 -6.6,2.128 -10.229,2.508 1.496,-0.73 2.896,-1.833 4.178,-3.252 z m 2.122,2.886 c 1.863,-0.504 3.655,-1.133 5.358,-1.88 0.89,0.169 1.803,0.353 2.775,0.554 -2.608,0.557 -5.326,1.005 -8.133,1.326 z m 10.008,-1.753 -0.857,-0.174 c -0.904,-0.187 -1.752,-0.363 -2.568,-0.524 6.997,-3.398 12.356,-8.803 14.873,-15.237 4.927,0.733 9.408,1.668 13.62,2.657 -5.03,5.88 -13.977,10.619 -25.068,13.278 z m 25.641,-13.953 c -4.3,-1.018 -8.875,-1.984 -13.919,-2.738 0.797,-2.271 1.246,-4.653 1.29,-7.121 h 16.496 c -0.096,3.486 -1.458,6.817 -3.867,9.859 z m -75.088,-4.31 h 13.765 v 4.41 h -9.049 v 6.248 h 8.664 v 4.407 h -8.664 v 6.094 h 9.049 v 4.41 h -13.765 z m 16.677,0 h 4.716 v 25.57 h -4.716 z M 215.554,85.862 c -1.957,4.522 -6.71,7.589 -11.808,7.589 -7.321,0 -13.34,-6.055 -13.34,-13.377 0,-7.207 5.978,-13.188 13.224,-13.188 3.184,0 6.171,1.111 8.624,3.183 1.687,1.419 2.53,2.529 3.451,4.637 H 210.3 c -1.953,-2.261 -4.217,-3.374 -6.86,-3.374 -4.485,0 -8.318,4.063 -8.318,8.819 0,4.791 3.948,8.893 8.509,8.893 2.453,0 4.256,-0.881 6.441,-3.181 h 5.482 z m 1.381,-18.478 h 13.76 v 4.409 h -9.045 v 6.248 h 8.663 v 4.406 h -8.663 v 6.096 h 9.045 v 4.409 h -13.76 z m 16.675,0 h 7.819 c 3.106,0 5.022,0.613 6.633,2.071 1.647,1.532 2.567,3.602 2.567,5.827 0,2.49 -1.075,4.982 -2.799,6.44 -1.071,0.92 -1.991,1.34 -3.871,1.802 l 6.938,9.43 h -5.75 l -6.824,-9.776 v 9.776 h -4.713 z m 7.742,12.229 c 2.837,0 4.564,-1.497 4.564,-3.95 0,-2.376 -1.764,-3.87 -4.526,-3.87 h -3.068 v 7.82 z m 20.395,0.345 h 16.677 v 0.537 c 0,7.054 -6.171,12.956 -13.57,12.956 -7.591,0 -13.725,-5.902 -13.725,-13.263 0,-7.283 6.171,-13.302 13.61,-13.302 5.442,0 10.771,3.451 12.381,8.012 h -5.634 c -1.497,-2.223 -4.065,-3.566 -6.824,-3.566 -2.453,0 -4.755,0.958 -6.326,2.645 -1.532,1.612 -2.492,4.065 -2.492,6.287 0,2.492 1.227,5.099 3.105,6.709 1.573,1.342 3.681,2.071 5.941,2.071 3.259,0 6.134,-1.764 7.553,-4.677 h -10.697 v -4.409 z m 18.441,-12.574 h 13.763 v 4.409 h -9.047 v 6.248 h 8.663 v 4.406 h -8.663 v 6.096 h 9.047 v 4.409 H 280.188 Z M 4.92,66.801 h 11.802 v 64 H 4.92 Z m 26.003,0 h 14.49 c 9.882,0 17.654,1.728 23.22,5.182 8.156,5.181 13.529,15.832 13.529,26.962 0,12.378 -6.525,23.507 -16.504,28.306 -5.181,2.494 -11.13,3.55 -19.958,3.55 H 30.923 Z m 14.297,52.965 c 7.485,0 11.706,-0.864 15.545,-3.166 6.044,-3.55 9.594,-10.075 9.594,-17.464 0,-7.964 -4.03,-15.065 -10.459,-18.519 -3.647,-1.919 -8.156,-2.782 -14.873,-2.782 h -2.303 v 41.931 z M 89.652,66.801 h 34.445 v 11.035 h -22.643 v 15.64 h 21.684 v 11.035 h -21.684 v 15.256 h 22.643 v 11.034 H 89.652 Z m 64.866,0 h 9.211 l 26.868,64 h -13.051 l -6.907,-16.504 h -22.645 l -7.1,16.504 h -13.051 z m 11.419,36.462 -6.814,-19.67 -6.811,19.67 z"
   id="path824"
   inkscape:connector-curvature="0"
   style="fill:#ffffff" />
</svg>