<?xml version="1.0" encoding="iso-8859-1"?>
<!-- Generator: Adobe Illustrator 19.0.0, SVG Export Plug-In . SVG Version: 6.00 Build 0)  -->
<svg xmlns="http://www.w3.org/2000/svg" xmlns:xlink="http://www.w3.org/1999/xlink" version="1.1" id="Capa_1" x="0px" y="0px" viewBox="0 0 512 512" style="enable-background:new 0 0 512 512;" xml:space="preserve" width="512px" height="512px">
<g>
	<g>
		<path d="M0,0v512h512V0H0z M263.701,399.083l-60.352,60.352c-20.139,20.139-46.912,31.232-75.413,31.232    c-28.501,0-55.275-11.093-75.413-31.232c-41.579-41.6-41.579-109.269,0-150.848l90.496-90.517    c41.557-41.579,109.248-41.6,150.848,0c8.341,8.32,8.341,21.824,0,30.165c-8.32,8.341-21.824,8.341-30.165,0    c-24.96-24.96-65.557-24.917-90.517,0l-90.496,90.517c-24.96,24.96-24.96,65.557,0,90.517c24.171,24.171,66.325,24.171,90.496,0    l60.352-60.352c8.341-8.32,21.845-8.32,30.165,0C272.043,377.259,272.043,390.763,263.701,399.083z M460.48,203.435    L354.027,309.888c-20.139,20.139-46.912,31.232-75.413,31.232s-55.253-11.093-75.413-31.232c-8.32-8.341-8.32-21.845,0-30.187    c8.341-8.32,21.845-8.32,30.165,0c24.171,24.171,66.347,24.171,90.496,0l106.453-106.432c24.96-24.96,24.96-65.557,0-90.517    c-24.171-24.171-66.325-24.171-90.496,0l-72.405,72.384c-8.32,8.341-21.824,8.341-30.165,0c-8.32-8.32-8.32-21.824,0-30.165    l72.405-72.384c20.139-20.16,46.912-31.253,75.413-31.253c28.501,0,55.275,11.093,75.413,31.253    C502.059,94.165,502.059,161.835,460.48,203.435z" fill="#bb133e"/>
	</g>
</g>
<g>
</g>
<g>
</g>
<g>
</g>
<g>
</g>
<g>
</g>
<g>
</g>
<g>
</g>
<g>
</g>
<g>
</g>
<g>
</g>
<g>
</g>
<g>
</g>
<g>
</g>
<g>
</g>
<g>
</g>
</svg>
