<?xml version="1.0" encoding="UTF-8" standalone="no"?>
<svg
   xmlns:dc="http://purl.org/dc/elements/1.1/"
   xmlns:cc="http://creativecommons.org/ns#"
   xmlns:rdf="http://www.w3.org/1999/02/22-rdf-syntax-ns#"
   xmlns:svg="http://www.w3.org/2000/svg"
   xmlns="http://www.w3.org/2000/svg"
   viewBox="0 0 1133.8533 657.64001"
   height="657.64001"
   width="1133.8533"
   xml:space="preserve"
   id="svg2"
   version="1.1"><metadata
     id="metadata8"><rdf:RDF><cc:Work
         rdf:about=""><dc:format>image/svg+xml</dc:format><dc:type
           rdf:resource="http://purl.org/dc/dcmitype/StillImage" /></cc:Work></rdf:RDF></metadata><defs
     id="defs6"><clipPath
       id="clipPath20"
       clipPathUnits="userSpaceOnUse"><path
         id="path18"
         d="m 348.176,2448.76 h 7787.7 v 2087.35 h -7787.7 z" /></clipPath></defs><g
     transform="matrix(1.3333333,0,0,-1.3333333,0,657.64)"
     id="g10"><g
       transform="scale(0.1)"
       id="g12"><g
         id="g14"><g
           clip-path="url(#clipPath20)"
           id="g16"><path
             id="path22"
             style="fill:#2c73c3;fill-opacity:1;fill-rule:nonzero;stroke:none"
             d="m 2435.61,3492.43 c 0,576.43 -467.25,1043.68 -1043.72,1043.68 -576.468,0 -1043.714,-467.25 -1043.714,-1043.68 0,-576.42 467.246,-1043.67 1043.714,-1043.67 576.47,0 1043.72,467.25 1043.72,1043.67" /><path
             id="path24"
             style="fill:#ffffff;fill-opacity:1;fill-rule:nonzero;stroke:none"
             d="m 1980.95,3030.66 -549.06,1266.02 h -79.91 l -154.16,-355.2 395.07,-910.82 h -201 v -68.89 h 755.98 v 68.89 z m -722.99,309.27 -32,73.89 H 969.09 L 802.84,3030.66 H 635.957 v -68.89 h 426.983 v 68.89 H 883.246 l 134.254,309.27 h 240.46" /><path
             id="path26"
             style="fill:#2c73c3;fill-opacity:1;fill-rule:nonzero;stroke:none"
             d="m 2944.25,4160.09 -78.11,-225.71 h 156.95 z m -104.18,-299.47 -36.85,-107.1 h -95.51 l 189.53,506.44 h 94.74 l 193.9,-506.44 h -99.06 l -37.66,107.1 h -209.09" /><path
             id="path28"
             style="fill:#2c73c3;fill-opacity:1;fill-rule:nonzero;stroke:none"
             d="m 3389.84,3914.15 -42.7,-47.73 v -112.9 h -86.74 v 544.02 h 86.74 v -326.22 l 130.97,161.27 h 107.78 l -140.32,-156.23 164.23,-222.84 h -104.9 l -115.06,160.63" /><path
             id="path30"
             style="fill:#2c73c3;fill-opacity:1;fill-rule:nonzero;stroke:none"
             d="m 3881,3906.2 c -17.34,4.36 -44.86,7.95 -76.68,7.95 -45.57,0 -77.39,-13.03 -77.39,-51.37 0,-41.21 32.54,-54.25 65.8,-54.25 37.66,0 70.21,14.47 88.27,45.58 z m -218.43,185.94 c 39.1,32.54 93.31,51.32 149.76,51.32 107.78,0 154.79,-46.29 154.79,-138.88 v -161.35 c 0,-18.79 6.47,-28.94 20.94,-28.94 h 15.91 l -7.19,-56.41 c -9.44,-7.95 -26.79,-10.11 -44.14,-10.11 -28.94,0 -49.17,10.11 -60.04,41.21 -25.35,-28.18 -60.05,-46.3 -113.53,-46.3 -75.24,0 -133.85,35.46 -133.85,117.18 0,78.16 66.52,110.75 149.04,110.75 37.57,0 77.39,-5.85 86.02,-8 v 36.94 c 0,57.08 -30.38,72.32 -77.39,72.32 -44.14,0 -78.12,-12.32 -105.62,-34.75 l -34.7,55.02" /><path
             id="path32"
             style="fill:#2c73c3;fill-opacity:1;fill-rule:nonzero;stroke:none"
             d="m 4318.68,4025.52 c -22.47,26.08 -49.17,39.11 -83.24,39.11 -51.33,0 -97.62,-36.9 -97.62,-120.09 0,-83.92 48.45,-122.26 95.46,-122.26 36.23,0 66.61,19.51 85.4,47.74 z m 24.63,-272 -11.6,44.14 h -1.43 c -26.07,-31.82 -65.9,-54.98 -112.91,-54.98 -78.83,0 -167.82,56.41 -167.82,201.14 0,136.72 82.52,199.64 165.67,199.64 53.57,0 84.67,-19.5 103.46,-36.13 v 190.21 h 86.83 v -544.02 h -62.2" /><path
             id="path34"
             style="fill:#2c73c3;fill-opacity:1;fill-rule:nonzero;stroke:none"
             d="m 4762.11,3971.32 c -2.16,62.93 -36.14,103.42 -90.43,103.42 -53.57,0 -89.71,-33.26 -96.18,-103.42 z m 67.24,-175.82 c -39.01,-32.54 -88.99,-52.82 -156.95,-52.82 -99.15,0 -182.3,64.41 -182.3,198.26 0,123.69 72.36,202.52 179.42,202.52 116.41,0 172.86,-88.27 172.86,-179.42 0,-16.63 -1.43,-35.41 -5.04,-51.33 h -259.68 c 10.06,-72.36 52.04,-99.14 107.77,-99.14 44.86,0 81.71,16.67 107.78,39.1 l 36.14,-57.17" /><path
             id="path36"
             style="fill:#2c73c3;fill-opacity:1;fill-rule:nonzero;stroke:none"
             d="m 5007.31,4079.82 c 28.95,43.42 63.65,62.2 112.85,62.2 53.57,0 88.97,-21.7 109.22,-68.72 31.8,47.02 72.35,68.72 124.49,68.72 76.68,0 122.98,-47.01 122.98,-129.48 v -259.02 h -88.28 v 248.91 c 0,41.93 -19.51,62.92 -55.04,62.92 -34.7,0 -64.34,-19.51 -86.71,-61.49 v -250.34 h -89.01 v 250.34 c 0,45.58 -25.36,61.49 -55,61.49 -36.86,0 -67.24,-24.63 -86.85,-61.49 v -250.34 h -88.99 v 379.07 h 68.05 l 9.44,-52.77 h 2.85" /><path
             id="path38"
             style="fill:#2c73c3;fill-opacity:1;fill-rule:nonzero;stroke:none"
             d="m 5588.18,3753.52 v 379.07 h 86.06 v -379.07 z m 96.93,481.09 c 0,-34.7 -26.79,-49.17 -54.31,-49.17 -26.7,0 -52.75,14.47 -52.75,49.17 0,34.75 26.05,49.94 52.75,49.94 27.52,0 54.31,-15.19 54.31,-49.94" /><path
             id="path40"
             style="fill:#2c73c3;fill-opacity:1;fill-rule:nonzero;stroke:none"
             d="m 6039.54,3971.32 c -2.17,62.93 -36.13,103.42 -90.44,103.42 -53.48,0 -89.7,-33.26 -96.19,-103.42 z m 67.33,-175.82 c -39.12,-32.54 -89.01,-52.82 -157.03,-52.82 -99.05,0 -182.3,64.41 -182.3,198.26 0,123.69 72.34,202.52 179.39,202.52 116.54,0 172.96,-88.27 172.96,-179.42 0,-16.63 -1.43,-35.41 -5.1,-51.33 h -259.72 c 10.17,-72.36 52.15,-99.14 107.79,-99.14 44.87,0 81.78,16.67 107.79,39.1 l 36.22,-57.17" /><path
             id="path42"
             style="fill:#2c73c3;fill-opacity:1;fill-rule:nonzero;stroke:none"
             d="m 6590.77,3753.52 h -80.27 l -149.77,379.83 h 92.56 l 98.44,-287.96 99.05,287.2 h 94.76 l -154.77,-379.07" /><path
             id="path44"
             style="fill:#2c73c3;fill-opacity:1;fill-rule:nonzero;stroke:none"
             d="m 7048.66,3971.32 c -2.17,62.93 -36.13,103.42 -90.44,103.42 -53.48,0 -89.7,-33.26 -96.19,-103.42 z m -206.24,305.99 h 71.66 l 36.96,-41.26 38.29,41.26 h 68.03 l -78.11,-91.15 h -54.31 z m 273.57,-481.81 c -39.12,-32.54 -89.01,-52.82 -157.04,-52.82 -99.08,0 -182.29,64.41 -182.29,198.26 0,123.69 72.34,202.52 179.39,202.52 116.49,0 172.87,-88.27 172.87,-179.42 0,-16.63 -1.42,-35.41 -5.01,-51.33 h -259.72 c 10.17,-72.36 52.06,-99.14 107.79,-99.14 44.87,0 81.69,16.67 107.79,39.1 l 36.22,-57.17" /><path
             id="path46"
             style="fill:#2c73c3;fill-opacity:1;fill-rule:nonzero;stroke:none"
             d="m 7464.57,4025.52 c -22.36,26.08 -49.15,39.11 -83.16,39.11 -51.41,0 -97.71,-36.9 -97.71,-120.09 0,-83.92 48.46,-122.26 95.5,-122.26 36.22,0 66.6,19.51 85.37,47.74 z m 24.63,-272 -11.6,44.14 h -1.43 c -26.05,-31.82 -65.81,-54.98 -112.9,-54.98 -78.83,0 -167.84,56.41 -167.84,201.14 0,136.72 82.52,199.64 165.68,199.64 53.57,0 84.69,-19.5 103.46,-36.13 v 190.21 h 86.85 v -544.02 h -62.22" /><path
             id="path48"
             style="fill:#2c73c3;fill-opacity:1;fill-rule:nonzero;stroke:none"
             d="m 2835.76,3617.16 h 71.64 l 36.85,-41.27 38.39,41.27 h 67.96 L 2972.48,3526 h -54.29 z m 294.47,-602.63 c -40.53,-36.85 -104.18,-63.64 -180.85,-63.64 -128.09,0 -242.39,84.68 -243.11,264.05 -0.72,179.38 110.7,264.05 248.14,264.05 66.52,0 127.29,-18.06 164.95,-47.01 l -42.7,-70.93 c -33.98,23.2 -76.67,34.75 -120.81,34.75 -82.43,0 -153.35,-56.41 -153.35,-180.86 0,-127.33 72.36,-180.86 154.07,-180.14 50.61,0 91.15,15.19 128.09,45.58 l 45.57,-65.85" /><path
             id="path50"
             style="fill:#2c73c3;fill-opacity:1;fill-rule:nonzero;stroke:none"
             d="m 3438.29,3179.48 c -2.16,62.92 -36.13,103.46 -90.43,103.46 -53.48,0 -89.71,-33.26 -96.18,-103.46 z m 67.33,-175.78 c -39.1,-32.59 -88.99,-52.81 -157.04,-52.81 -99.06,0 -182.3,64.36 -182.3,198.21 0,123.69 72.36,202.56 179.43,202.56 116.49,0 172.95,-88.22 172.95,-179.42 0,-16.63 -1.45,-35.46 -5.13,-51.37 h -259.69 c 10.16,-72.32 52.13,-99.06 107.78,-99.06 44.85,0 81.79,16.63 107.77,39.01 l 36.23,-57.12" /><path
             id="path52"
             style="fill:#2c73c3;fill-opacity:1;fill-rule:nonzero;stroke:none"
             d="m 3607.55,3059.39 c 30.39,-22.39 71.65,-33.98 105.63,-33.98 48.45,0 73.8,19.5 73.8,46.29 0,34.69 -41.98,37.62 -96.19,56.45 -63.73,22.38 -99.86,49.17 -99.86,109.94 0,70.92 59.32,113.57 144.72,113.57 52.05,0 100.49,-15.91 131.6,-39.05 l -28.23,-60.05 c -28.85,17.35 -67.23,29.67 -101.21,29.67 -39.11,0 -62.93,-16.64 -62.93,-41.99 0,-32.54 35.42,-40.49 83.87,-54.96 63.64,-18.84 115.78,-42.65 115.78,-110.71 0,-78.11 -62.2,-123.68 -154.79,-123.68 -52.86,0 -104.9,17.34 -135.29,41.25 l 23.1,67.25" /><path
             id="path54"
             style="fill:#2c73c3;fill-opacity:1;fill-rule:nonzero;stroke:none"
             d="m 4081.37,3122.3 -42.7,-47.73 v -112.8 h -86.74 v 544.01 h 86.74 v -326.3 l 130.97,161.35 h 107.78 l -140.32,-156.27 164.23,-222.79 h -104.9 l -115.06,160.53" /><path
             id="path56"
             style="fill:#2c73c3;fill-opacity:1;fill-rule:nonzero;stroke:none"
             d="m 4463.31,3388.56 48.45,96.95 h 102.75 l -96.19,-96.95 z m 126.57,-209.08 c -2.16,62.92 -36.14,103.46 -90.43,103.46 -53.49,0 -89.71,-33.26 -96.18,-103.46 z m 67.33,-175.78 c -39.1,-32.59 -89,-52.81 -157.04,-52.81 -99.06,0 -182.3,64.36 -182.3,198.21 0,123.69 72.36,202.56 179.42,202.56 116.5,0 172.95,-88.22 172.95,-179.42 0,-16.63 -1.44,-35.46 -5.12,-51.37 h -259.69 c 10.15,-72.32 52.13,-99.06 107.77,-99.06 44.86,0 81.8,16.63 107.78,39.01 l 36.23,-57.12" /><path
             id="path58"
             style="fill:#2c73c3;fill-opacity:1;fill-rule:nonzero;stroke:none"
             d="m 5038.33,3285.1 c 22.51,49.17 57.9,66.56 100.61,66.56 16.61,0 34.7,-3.64 48.46,-11.55 l -17.35,-78.88 c -10.08,3.65 -23.1,8.68 -39.03,8.68 -37.64,0 -68.75,-21.66 -88.27,-78.84 v -229.3 h -87.54 v 379.06 h 66.51 l 14.45,-55.73 h 2.16" /><path
             id="path60"
             style="fill:#2c73c3;fill-opacity:1;fill-rule:nonzero;stroke:none"
             d="m 5498.48,3179.48 c -2.16,62.92 -36.22,103.46 -90.44,103.46 -53.57,0 -89.7,-33.26 -96.24,-103.46 z m 67.24,-175.78 c -38.98,-32.59 -88.97,-52.81 -156.94,-52.81 -99.14,0 -182.3,64.36 -182.3,198.21 0,123.69 72.25,202.56 179.45,202.56 116.39,0 172.82,-88.22 172.82,-179.42 0,-16.63 -1.43,-35.46 -5.02,-51.37 h -259.76 c 10.12,-72.32 52.1,-99.06 107.83,-99.06 44.88,0 81.74,16.63 107.79,39.01 l 36.13,-57.12" /><path
             id="path62"
             style="fill:#2c73c3;fill-opacity:1;fill-rule:nonzero;stroke:none"
             d="m 5750.18,3045.63 c 20.21,-15.91 39.03,-23.1 70.19,-23.1 54.95,0 104.11,47.01 104.11,131.64 0,83.2 -40.46,118.62 -87.45,118.62 -36.96,0 -62.91,-20.23 -86.85,-56.41 z m -8,244.55 c 31.11,39.78 65.16,59.33 115.05,59.33 82.43,0 156.25,-62.97 156.25,-188.1 0,-131.69 -81,-210.52 -177.19,-210.52 -36.22,0 -63,7.24 -86.11,20.99 v -159.15 h -86.84 v 528.82 h 61.48 l 15.93,-51.37 h 1.43" /><path
             id="path64"
             style="fill:#2c73c3;fill-opacity:1;fill-rule:nonzero;stroke:none"
             d="m 6428.67,2961.77 h -59.97 l -17.4,52.76 c -27.43,-34.7 -62.22,-61.49 -124.45,-61.49 -76.67,0 -128.68,44.14 -128.68,134.57 v 253.22 h 86.02 v -232.95 c 0,-59.33 26.78,-77.44 61.49,-77.44 43.4,0 73.08,27.51 96.97,61.53 v 248.86 h 86.02 v -379.06" /><path
             id="path66"
             style="fill:#2c73c3;fill-opacity:1;fill-rule:nonzero;stroke:none"
             d="m 6618.98,3066.62 c 17.35,-23.87 44.87,-39.05 83.16,-39.05 58.59,0 99.14,49.16 99.14,128.76 0,75.24 -39.12,115.74 -93.39,115.74 -31.84,0 -61.48,-13 -88.91,-46.3 z m 2.16,235.83 c 26.69,31.82 64.34,49.21 109.22,49.21 92.59,0 159.1,-68.72 159.1,-193.85 0,-129.52 -71.57,-206.92 -175.03,-206.92 -46.3,0 -82.52,18.78 -107.79,50.6 h -2.85 l -14.5,-39.72 h -57.16 v 544.01 h 86.85 v -203.33 h 2.16" /><path
             id="path68"
             style="fill:#2c73c3;fill-opacity:1;fill-rule:nonzero;stroke:none"
             d="m 6978.47,2961.77 v 544.01 h 86.8 v -544.01 h -86.8" /><path
             id="path70"
             style="fill:#2c73c3;fill-opacity:1;fill-rule:nonzero;stroke:none"
             d="m 7180.24,2961.77 v 379.06 h 86.11 v -379.06 z m 96.92,481.04 c 0,-34.74 -26.69,-49.21 -54.21,-49.21 -26.79,0 -52.84,14.47 -52.84,49.21 0,34.74 26.05,49.94 52.84,49.94 27.52,0 54.21,-15.2 54.21,-49.94" /><path
             id="path72"
             style="fill:#2c73c3;fill-opacity:1;fill-rule:nonzero;stroke:none"
             d="m 7507.19,3122.3 -42.62,-47.73 v -112.8 h -86.84 v 544.01 h 86.84 v -326.3 l 130.89,161.35 h 107.79 l -140.32,-156.27 164.21,-222.79 h -104.89 l -115.06,160.53" /><path
             id="path74"
             style="fill:#2c73c3;fill-opacity:1;fill-rule:nonzero;stroke:none"
             d="m 7990.44,2937.85 c -31.11,-86.07 -76.67,-129.48 -146.9,-129.48 -40.46,0 -61.49,5.79 -81.7,12.31 l 15.93,65.84 c 10.86,-3.63 31.8,-8.72 50.58,-8.72 27.52,0 54.3,19.56 68.06,55.74 l 6.45,16.63 -156.94,391.38 h 89.74 l 109.22,-302.39 99.14,302.39 h 91.86 l -145.44,-403.7" /></g></g><path
         id="path76"
         style="fill:none;stroke:#2c73c3;stroke-width:80;stroke-linecap:butt;stroke-linejoin:miter;stroke-miterlimit:4;stroke-dasharray:none;stroke-opacity:1"
         d="M 2698.55,2491.28 H 8142.49" /><g
         transform="scale(10)"
         id="g78"><text
           id="text82"
           style="font-variant:normal;font-weight:bold;font-size:107px;font-family:MotivaSans;-inkscape-font-specification:MotivaSans-Bold;writing-mode:lr-tb;fill:#2c73c3;fill-opacity:1;fill-rule:nonzero;stroke:none"
           transform="matrix(1,0,0,-1,35.8555,128.237)"><tspan
             id="tspan80"
             y="0"
             x="0 63.129604 107.42781 150.22881 211.1118 253.80501 315.43579 381.34778 413.23257 474.8634 501.05222 567.07153 644.64557 713.98096">Strategie AV21</tspan></text>
<text
           id="text86"
           style="font-variant:normal;font-weight:normal;font-size:45px;font-family:MotivaSans;-inkscape-font-specification:MotivaSans-Regular;writing-mode:lr-tb;fill:#2c73c3;fill-opacity:1;fill-rule:nonzero;stroke:none"
           transform="matrix(1,0,0,-1,35.8555,65.9628)"><tspan
             id="tspan84"
             y="0"
             x="0 25.965 52.695 64.485001 88.559998 112.22852 139.67851 163.57352 189.08794 202.04793 225.94293 251.45735 272.92233 297.22235 323.90674 364.13675 377.09674 400.22632 426.50632 439.46631 462.59589 488.87589 504.49097 530.771 542.87598 569.651 595.93097 636.16101 649.12097 670.63019 695.87518 707.98016 748.21014">Špičkový výzkum ve veřejném zájmu</tspan></text>
</g></g></g></svg>