<?xml version="1.0" encoding="UTF-8" standalone="no"?>
<svg
   xmlns:osb="http://www.openswatchbook.org/uri/2009/osb"
   xmlns:dc="http://purl.org/dc/elements/1.1/"
   xmlns:cc="http://creativecommons.org/ns#"
   xmlns:rdf="http://www.w3.org/1999/02/22-rdf-syntax-ns#"
   xmlns:svg="http://www.w3.org/2000/svg"
   xmlns="http://www.w3.org/2000/svg"
   xmlns:sodipodi="http://sodipodi.sourceforge.net/DTD/sodipodi-0.dtd"
   xmlns:inkscape="http://www.inkscape.org/namespaces/inkscape"
   viewBox="0 0 1133.8533 657.64001"
   height="657.64001"
   width="1133.8533"
   xml:space="preserve"
   id="svg2"
   version="1.1"
   sodipodi:docname="strategie_red_blue.svg"
   inkscape:version="0.92.3 (2405546, 2018-03-11)"><sodipodi:namedview
     pagecolor="#bb133e"
     bordercolor="#666666"
     borderopacity="1"
     objecttolerance="10"
     gridtolerance="10"
     guidetolerance="10"
     inkscape:pageopacity="0"
     inkscape:pageshadow="2"
     inkscape:window-width="1920"
     inkscape:window-height="986"
     id="namedview895"
     showgrid="false"
     inkscape:zoom="1.1602092"
     inkscape:cx="566.92664"
     inkscape:cy="328.82001"
     inkscape:window-x="-11"
     inkscape:window-y="-11"
     inkscape:window-maximized="1"
     inkscape:current-layer="g16" /><metadata
     id="metadata8"><rdf:RDF><cc:Work
         rdf:about=""><dc:format>image/svg+xml</dc:format><dc:type
           rdf:resource="http://purl.org/dc/dcmitype/StillImage" /><dc:title></dc:title></cc:Work></rdf:RDF></metadata><defs
     id="defs6"><linearGradient
       id="linearGradient899"
       osb:paint="solid"><stop
         style="stop-color:#bb133e;stop-opacity:1;"
         offset="0"
         id="stop897" /></linearGradient><clipPath
       id="clipPath20"
       clipPathUnits="userSpaceOnUse"><path
         id="path18"
         d="m 348.176,2448.76 h 7787.7 v 2087.35 h -7787.7 z" /></clipPath></defs><g
     transform="matrix(1.3333333,0,0,-1.3333333,0,657.64)"
     id="g10"><g
       transform="scale(0.1)"
       id="g12"><g
         id="g14"><g
           clip-path="url(#clipPath20)"
           id="g16"><path
             id="path22"
             style="fill:#2c73c3;fill-opacity:1;fill-rule:nonzero;stroke:none"
             d="m 2435.61,3492.43 c 0,576.43 -467.25,1043.68 -1043.72,1043.68 -576.468,0 -1043.714,-467.25 -1043.714,-1043.68 0,-576.42 467.246,-1043.67 1043.714,-1043.67 576.47,0 1043.72,467.25 1043.72,1043.67" /><path
             id="path24"
             style="fill:#bb133e;fill-opacity:1;fill-rule:nonzero;stroke:none"
             d="m 1980.95,3030.66 -549.06,1266.02 h -79.91 l -154.16,-355.2 395.07,-910.82 h -201 v -68.89 h 755.98 v 68.89 z m -722.99,309.27 -32,73.89 H 969.09 L 802.84,3030.66 H 635.957 v -68.89 h 426.983 v 68.89 H 883.246 l 134.254,309.27 h 240.46" /><path
             id="path26"
             style="fill:#2c73c3;fill-opacity:1;fill-rule:nonzero;stroke:none"
             d="m 2944.25,4160.09 -78.11,-225.71 h 156.95 z m -104.18,-299.47 -36.85,-107.1 h -95.51 l 189.53,506.44 h 94.74 l 193.9,-506.44 h -99.06 l -37.66,107.1 h -209.09" /><path
             id="path28"
             style="fill:#2c73c3;fill-opacity:1;fill-rule:nonzero;stroke:none"
             d="m 3389.84,3914.15 -42.7,-47.73 v -112.9 h -86.74 v 544.02 h 86.74 v -326.22 l 130.97,161.27 h 107.78 l -140.32,-156.23 164.23,-222.84 h -104.9 l -115.06,160.63" /><path
             id="path30"
             style="fill:#2c73c3;fill-opacity:1;fill-rule:nonzero;stroke:none"
             d="m 3881,3906.2 c -17.34,4.36 -44.86,7.95 -76.68,7.95 -45.57,0 -77.39,-13.03 -77.39,-51.37 0,-41.21 32.54,-54.25 65.8,-54.25 37.66,0 70.21,14.47 88.27,45.58 z m -218.43,185.94 c 39.1,32.54 93.31,51.32 149.76,51.32 107.78,0 154.79,-46.29 154.79,-138.88 v -161.35 c 0,-18.79 6.47,-28.94 20.94,-28.94 h 15.91 l -7.19,-56.41 c -9.44,-7.95 -26.79,-10.11 -44.14,-10.11 -28.94,0 -49.17,10.11 -60.04,41.21 -25.35,-28.18 -60.05,-46.3 -113.53,-46.3 -75.24,0 -133.85,35.46 -133.85,117.18 0,78.16 66.52,110.75 149.04,110.75 37.57,0 77.39,-5.85 86.02,-8 v 36.94 c 0,57.08 -30.38,72.32 -77.39,72.32 -44.14,0 -78.12,-12.32 -105.62,-34.75 l -34.7,55.02" /><path
             id="path32"
             style="fill:#2c73c3;fill-opacity:1;fill-rule:nonzero;stroke:none"
             d="m 4318.68,4025.52 c -22.47,26.08 -49.17,39.11 -83.24,39.11 -51.33,0 -97.62,-36.9 -97.62,-120.09 0,-83.92 48.45,-122.26 95.46,-122.26 36.23,0 66.61,19.51 85.4,47.74 z m 24.63,-272 -11.6,44.14 h -1.43 c -26.07,-31.82 -65.9,-54.98 -112.91,-54.98 -78.83,0 -167.82,56.41 -167.82,201.14 0,136.72 82.52,199.64 165.67,199.64 53.57,0 84.67,-19.5 103.46,-36.13 v 190.21 h 86.83 v -544.02 h -62.2" /><path
             id="path34"
             style="fill:#2c73c3;fill-opacity:1;fill-rule:nonzero;stroke:none"
             d="m 4762.11,3971.32 c -2.16,62.93 -36.14,103.42 -90.43,103.42 -53.57,0 -89.71,-33.26 -96.18,-103.42 z m 67.24,-175.82 c -39.01,-32.54 -88.99,-52.82 -156.95,-52.82 -99.15,0 -182.3,64.41 -182.3,198.26 0,123.69 72.36,202.52 179.42,202.52 116.41,0 172.86,-88.27 172.86,-179.42 0,-16.63 -1.43,-35.41 -5.04,-51.33 h -259.68 c 10.06,-72.36 52.04,-99.14 107.77,-99.14 44.86,0 81.71,16.67 107.78,39.1 l 36.14,-57.17" /><path
             id="path36"
             style="fill:#2c73c3;fill-opacity:1;fill-rule:nonzero;stroke:none"
             d="m 5007.31,4079.82 c 28.95,43.42 63.65,62.2 112.85,62.2 53.57,0 88.97,-21.7 109.22,-68.72 31.8,47.02 72.35,68.72 124.49,68.72 76.68,0 122.98,-47.01 122.98,-129.48 v -259.02 h -88.28 v 248.91 c 0,41.93 -19.51,62.92 -55.04,62.92 -34.7,0 -64.34,-19.51 -86.71,-61.49 v -250.34 h -89.01 v 250.34 c 0,45.58 -25.36,61.49 -55,61.49 -36.86,0 -67.24,-24.63 -86.85,-61.49 v -250.34 h -88.99 v 379.07 h 68.05 l 9.44,-52.77 h 2.85" /><path
             id="path38"
             style="fill:#2c73c3;fill-opacity:1;fill-rule:nonzero;stroke:none"
             d="m 5588.18,3753.52 v 379.07 h 86.06 v -379.07 z m 96.93,481.09 c 0,-34.7 -26.79,-49.17 -54.31,-49.17 -26.7,0 -52.75,14.47 -52.75,49.17 0,34.75 26.05,49.94 52.75,49.94 27.52,0 54.31,-15.19 54.31,-49.94" /><path
             id="path40"
             style="fill:#2c73c3;fill-opacity:1;fill-rule:nonzero;stroke:none"
             d="m 6039.54,3971.32 c -2.17,62.93 -36.13,103.42 -90.44,103.42 -53.48,0 -89.7,-33.26 -96.19,-103.42 z m 67.33,-175.82 c -39.12,-32.54 -89.01,-52.82 -157.03,-52.82 -99.05,0 -182.3,64.41 -182.3,198.26 0,123.69 72.34,202.52 179.39,202.52 116.54,0 172.96,-88.27 172.96,-179.42 0,-16.63 -1.43,-35.41 -5.1,-51.33 h -259.72 c 10.17,-72.36 52.15,-99.14 107.79,-99.14 44.87,0 81.78,16.67 107.79,39.1 l 36.22,-57.17" /><path
             id="path42"
             style="fill:#2c73c3;fill-opacity:1;fill-rule:nonzero;stroke:none"
             d="m 6590.77,3753.52 h -80.27 l -149.77,379.83 h 92.56 l 98.44,-287.96 99.05,287.2 h 94.76 l -154.77,-379.07" /><path
             id="path44"
             style="fill:#2c73c3;fill-opacity:1;fill-rule:nonzero;stroke:none"
             d="m 7048.66,3971.32 c -2.17,62.93 -36.13,103.42 -90.44,103.42 -53.48,0 -89.7,-33.26 -96.19,-103.42 z m -206.24,305.99 h 71.66 l 36.96,-41.26 38.29,41.26 h 68.03 l -78.11,-91.15 h -54.31 z m 273.57,-481.81 c -39.12,-32.54 -89.01,-52.82 -157.04,-52.82 -99.08,0 -182.29,64.41 -182.29,198.26 0,123.69 72.34,202.52 179.39,202.52 116.49,0 172.87,-88.27 172.87,-179.42 0,-16.63 -1.42,-35.41 -5.01,-51.33 h -259.72 c 10.17,-72.36 52.06,-99.14 107.79,-99.14 44.87,0 81.69,16.67 107.79,39.1 l 36.22,-57.17" /><path
             id="path46"
             style="fill:#2c73c3;fill-opacity:1;fill-rule:nonzero;stroke:none"
             d="m 7464.57,4025.52 c -22.36,26.08 -49.15,39.11 -83.16,39.11 -51.41,0 -97.71,-36.9 -97.71,-120.09 0,-83.92 48.46,-122.26 95.5,-122.26 36.22,0 66.6,19.51 85.37,47.74 z m 24.63,-272 -11.6,44.14 h -1.43 c -26.05,-31.82 -65.81,-54.98 -112.9,-54.98 -78.83,0 -167.84,56.41 -167.84,201.14 0,136.72 82.52,199.64 165.68,199.64 53.57,0 84.69,-19.5 103.46,-36.13 v 190.21 h 86.85 v -544.02 h -62.22" /><path
             id="path48"
             style="fill:#2c73c3;fill-opacity:1;fill-rule:nonzero;stroke:none"
             d="m 2835.76,3617.16 h 71.64 l 36.85,-41.27 38.39,41.27 h 67.96 L 2972.48,3526 h -54.29 z m 294.47,-602.63 c -40.53,-36.85 -104.18,-63.64 -180.85,-63.64 -128.09,0 -242.39,84.68 -243.11,264.05 -0.72,179.38 110.7,264.05 248.14,264.05 66.52,0 127.29,-18.06 164.95,-47.01 l -42.7,-70.93 c -33.98,23.2 -76.67,34.75 -120.81,34.75 -82.43,0 -153.35,-56.41 -153.35,-180.86 0,-127.33 72.36,-180.86 154.07,-180.14 50.61,0 91.15,15.19 128.09,45.58 l 45.57,-65.85" /><path
             id="path50"
             style="fill:#2c73c3;fill-opacity:1;fill-rule:nonzero;stroke:none"
             d="m 3438.29,3179.48 c -2.16,62.92 -36.13,103.46 -90.43,103.46 -53.48,0 -89.71,-33.26 -96.18,-103.46 z m 67.33,-175.78 c -39.1,-32.59 -88.99,-52.81 -157.04,-52.81 -99.06,0 -182.3,64.36 -182.3,198.21 0,123.69 72.36,202.56 179.43,202.56 116.49,0 172.95,-88.22 172.95,-179.42 0,-16.63 -1.45,-35.46 -5.13,-51.37 h -259.69 c 10.16,-72.32 52.13,-99.06 107.78,-99.06 44.85,0 81.79,16.63 107.77,39.01 l 36.23,-57.12" /><path
             id="path52"
             style="fill:#2c73c3;fill-opacity:1;fill-rule:nonzero;stroke:none"
             d="m 3607.55,3059.39 c 30.39,-22.39 71.65,-33.98 105.63,-33.98 48.45,0 73.8,19.5 73.8,46.29 0,34.69 -41.98,37.62 -96.19,56.45 -63.73,22.38 -99.86,49.17 -99.86,109.94 0,70.92 59.32,113.57 144.72,113.57 52.05,0 100.49,-15.91 131.6,-39.05 l -28.23,-60.05 c -28.85,17.35 -67.23,29.67 -101.21,29.67 -39.11,0 -62.93,-16.64 -62.93,-41.99 0,-32.54 35.42,-40.49 83.87,-54.96 63.64,-18.84 115.78,-42.65 115.78,-110.71 0,-78.11 -62.2,-123.68 -154.79,-123.68 -52.86,0 -104.9,17.34 -135.29,41.25 l 23.1,67.25" /><path
             id="path54"
             style="fill:#2c73c3;fill-opacity:1;fill-rule:nonzero;stroke:none"
             d="m 4081.37,3122.3 -42.7,-47.73 v -112.8 h -86.74 v 544.01 h 86.74 v -326.3 l 130.97,161.35 h 107.78 l -140.32,-156.27 164.23,-222.79 h -104.9 l -115.06,160.53" /><path
             id="path56"
             style="fill:#2c73c3;fill-opacity:1;fill-rule:nonzero;stroke:none"
             d="m 4463.31,3388.56 48.45,96.95 h 102.75 l -96.19,-96.95 z m 126.57,-209.08 c -2.16,62.92 -36.14,103.46 -90.43,103.46 -53.49,0 -89.71,-33.26 -96.18,-103.46 z m 67.33,-175.78 c -39.1,-32.59 -89,-52.81 -157.04,-52.81 -99.06,0 -182.3,64.36 -182.3,198.21 0,123.69 72.36,202.56 179.42,202.56 116.5,0 172.95,-88.22 172.95,-179.42 0,-16.63 -1.44,-35.46 -5.12,-51.37 h -259.69 c 10.15,-72.32 52.13,-99.06 107.77,-99.06 44.86,0 81.8,16.63 107.78,39.01 l 36.23,-57.12" /><path
             id="path58"
             style="fill:#2c73c3;fill-opacity:1;fill-rule:nonzero;stroke:none"
             d="m 5038.33,3285.1 c 22.51,49.17 57.9,66.56 100.61,66.56 16.61,0 34.7,-3.64 48.46,-11.55 l -17.35,-78.88 c -10.08,3.65 -23.1,8.68 -39.03,8.68 -37.64,0 -68.75,-21.66 -88.27,-78.84 v -229.3 h -87.54 v 379.06 h 66.51 l 14.45,-55.73 h 2.16" /><path
             id="path60"
             style="fill:#2c73c3;fill-opacity:1;fill-rule:nonzero;stroke:none"
             d="m 5498.48,3179.48 c -2.16,62.92 -36.22,103.46 -90.44,103.46 -53.57,0 -89.7,-33.26 -96.24,-103.46 z m 67.24,-175.78 c -38.98,-32.59 -88.97,-52.81 -156.94,-52.81 -99.14,0 -182.3,64.36 -182.3,198.21 0,123.69 72.25,202.56 179.45,202.56 116.39,0 172.82,-88.22 172.82,-179.42 0,-16.63 -1.43,-35.46 -5.02,-51.37 h -259.76 c 10.12,-72.32 52.1,-99.06 107.83,-99.06 44.88,0 81.74,16.63 107.79,39.01 l 36.13,-57.12" /><path
             id="path62"
             style="fill:#2c73c3;fill-opacity:1;fill-rule:nonzero;stroke:none"
             d="m 5750.18,3045.63 c 20.21,-15.91 39.03,-23.1 70.19,-23.1 54.95,0 104.11,47.01 104.11,131.64 0,83.2 -40.46,118.62 -87.45,118.62 -36.96,0 -62.91,-20.23 -86.85,-56.41 z m -8,244.55 c 31.11,39.78 65.16,59.33 115.05,59.33 82.43,0 156.25,-62.97 156.25,-188.1 0,-131.69 -81,-210.52 -177.19,-210.52 -36.22,0 -63,7.24 -86.11,20.99 v -159.15 h -86.84 v 528.82 h 61.48 l 15.93,-51.37 h 1.43" /><path
             id="path64"
             style="fill:#2c73c3;fill-opacity:1;fill-rule:nonzero;stroke:none"
             d="m 6428.67,2961.77 h -59.97 l -17.4,52.76 c -27.43,-34.7 -62.22,-61.49 -124.45,-61.49 -76.67,0 -128.68,44.14 -128.68,134.57 v 253.22 h 86.02 v -232.95 c 0,-59.33 26.78,-77.44 61.49,-77.44 43.4,0 73.08,27.51 96.97,61.53 v 248.86 h 86.02 v -379.06" /><path
             id="path66"
             style="fill:#2c73c3;fill-opacity:1;fill-rule:nonzero;stroke:none"
             d="m 6618.98,3066.62 c 17.35,-23.87 44.87,-39.05 83.16,-39.05 58.59,0 99.14,49.16 99.14,128.76 0,75.24 -39.12,115.74 -93.39,115.74 -31.84,0 -61.48,-13 -88.91,-46.3 z m 2.16,235.83 c 26.69,31.82 64.34,49.21 109.22,49.21 92.59,0 159.1,-68.72 159.1,-193.85 0,-129.52 -71.57,-206.92 -175.03,-206.92 -46.3,0 -82.52,18.78 -107.79,50.6 h -2.85 l -14.5,-39.72 h -57.16 v 544.01 h 86.85 v -203.33 h 2.16" /><path
             id="path68"
             style="fill:#2c73c3;fill-opacity:1;fill-rule:nonzero;stroke:none"
             d="m 6978.47,2961.77 v 544.01 h 86.8 v -544.01 h -86.8" /><path
             id="path70"
             style="fill:#2c73c3;fill-opacity:1;fill-rule:nonzero;stroke:none"
             d="m 7180.24,2961.77 v 379.06 h 86.11 v -379.06 z m 96.92,481.04 c 0,-34.74 -26.69,-49.21 -54.21,-49.21 -26.79,0 -52.84,14.47 -52.84,49.21 0,34.74 26.05,49.94 52.84,49.94 27.52,0 54.21,-15.2 54.21,-49.94" /><path
             id="path72"
             style="fill:#2c73c3;fill-opacity:1;fill-rule:nonzero;stroke:none"
             d="m 7507.19,3122.3 -42.62,-47.73 v -112.8 h -86.84 v 544.01 h 86.84 v -326.3 l 130.89,161.35 h 107.79 l -140.32,-156.27 164.21,-222.79 h -104.89 l -115.06,160.53" /><path
             id="path74"
             style="fill:#2c73c3;fill-opacity:1;fill-rule:nonzero;stroke:none"
             d="m 7990.44,2937.85 c -31.11,-86.07 -76.67,-129.48 -146.9,-129.48 -40.46,0 -61.49,5.79 -81.7,12.31 l 15.93,65.84 c 10.86,-3.63 31.8,-8.72 50.58,-8.72 27.52,0 54.3,19.56 68.06,55.74 l 6.45,16.63 -156.94,391.38 h 89.74 l 109.22,-302.39 99.14,302.39 h 91.86 l -145.44,-403.7" /></g></g><path
         id="path76"
         style="fill:none;stroke:#2c73c3;stroke-width:80;stroke-linecap:butt;stroke-linejoin:miter;stroke-miterlimit:4;stroke-dasharray:none;stroke-opacity:1"
         d="M 2698.55,2491.28 H 8142.49" /><path
         id="path78"
         style="fill:#2c73c3;fill-opacity:1;fill-rule:nonzero;stroke:none"
         d="m 687.727,2044.21 c -160.489,0 -272.047,-80.01 -272.047,-219.27 0,-123.52 84.168,-176.71 205.578,-217.26 106.551,-35.27 172.594,-52.37 172.594,-109.21 0,-49.65 -43.329,-83.26 -134.383,-83.26 -67.559,0 -143.336,19.82 -206.715,53.3 l -48.59,-129.84 c 78.004,-47.43 179.441,-69.14 263.566,-69.14 172.559,0 292.622,85.76 292.622,238.42 0,111.57 -70.02,162.23 -191.872,205.32 -113.343,40.69 -189.605,55.23 -189.605,117.73 0,51.45 42.93,80.16 112.32,80.16 60.688,0 130.239,-21.56 181.555,-57.42 l 66.609,117.11 c -49.882,37.9 -139.796,73.36 -251.632,73.36 z m 566.583,-201.16 v 146.02 h -85.79 l -65.34,-80.48 v -65.54 h -84.54 v -127.6 h 84.54 v -299.39 c 0,-107.01 54.56,-150.5 153.47,-150.5 63.1,0 112.41,18.64 149.48,42.22 l -36.45,106.52 c -22.38,-8.47 -48.06,-14.63 -72.26,-14.63 -26.19,0 -43.11,13.25 -43.11,47.44 v 268.33 h 136.7 v 127.6 z m 524.02,16.81 c -54.12,0 -100.6,-23.76 -133.81,-99.87 h -3.21 l -23.42,83.06 h -115.23 v -560.68 h 150.96 v 321.73 c 26.51,86.12 67.32,116.29 113.85,116.29 24.3,0 43.32,-9.17 57.38,-15.43 l 26.57,137.18 c -20.52,11.61 -46.71,17.72 -73.1,17.72 z m 380.47,0 c -80.61,0 -166.65,-26.66 -226.36,-77.4 l 57.51,-93.08 c 36.9,28.85 91.41,48.92 149.52,48.92 67.32,0 106.84,-22.68 106.84,-98.02 v -42.91 c -15.88,3.31 -70.12,10.2 -118.36,10.2 -123.9,0 -220.16,-49.93 -220.16,-164.32 0,-123.34 88.09,-177.69 197.45,-177.69 79.68,0 128.61,28.93 164.29,65.38 17.19,-45.65 52.52,-61.7 97.49,-61.7 25.51,0 56.93,4.78 74.29,20.31 l 11.21,97.96 -26.63,-0.4 c -19.22,0 -29.77,12.8 -29.77,41.12 v 223.24 c 0,135.29 -72.24,208.39 -237.29,208.39 z m -12.91,-343.4 c 42.37,0 78.66,-5.25 102.42,-11.92 v -67.56 c -23.65,-42.15 -67.59,-60.45 -115.78,-60.45 -42.16,0 -84.69,16.67 -84.69,71.12 0,51.08 40.13,68.82 98.06,68.82 z m 588.24,326.59 v 146.02 h -85.79 L 2583,1908.59 v -65.54 h -84.54 v -127.6 H 2583 v -299.39 c 0,-107.01 54.56,-150.5 153.47,-150.5 63.1,0 112.41,18.64 149.48,42.22 l -36.45,106.52 c -22.38,-8.47 -48.06,-14.63 -72.26,-14.63 -26.19,0 -43.11,13.25 -43.11,47.44 v 268.33 h 136.7 v 127.6 z m 736.48,-246.63 c 0,134.06 -83.55,263.44 -258.51,263.44 -160.8,0 -269.87,-120.08 -269.87,-299.7 0,-199.28 123.45,-294.6 274.4,-294.6 96.73,0 172.74,27.37 232.19,77.1 l -58.62,97.55 c -38.92,-31.58 -90.9,-53.77 -151.62,-53.77 -72.29,0 -130.21,32.31 -145.9,127.63 h 370.1 c 5.45,25.97 7.83,55.83 7.83,82.36 z m -379.89,14.31 c 10.5,93.38 56.79,132.88 124.85,132.88 69.85,0 113.85,-49.78 117.21,-132.88 z m 716.07,249.13 c -123.26,0 -248.27,-96.51 -248.27,-280.76 0,-176.25 110.24,-277.8 250.79,-277.8 56.88,0 102.29,12.34 149.07,55.82 v -65.31 c 0,-80.18 -62.28,-113.05 -144.69,-113.05 -61.21,0 -120.82,16.86 -164.48,48.77 L 3597,1115.46 c 49.73,-37.71 130.68,-65.43 217,-65.43 170.35,0 288.23,78.96 288.23,272.19 v 522.14 h -101.72 l -26.44,-52.21 h -5.86 c -32.72,37.54 -83.52,67.69 -161.44,67.69 z m 33.94,-136.77 c 56.64,0 88.6,-22.18 113.02,-47.97 v -179.64 c -27.58,-42 -67.6,-60.05 -113.33,-60.05 -73.57,0 -128.48,49.35 -128.48,145.56 0,93.82 59.96,142.1 128.79,142.1 z m 489.72,359.49 c -44.05,0 -88.1,-24.24 -88.1,-80.98 0,-56.73 44.05,-80.98 88.1,-80.98 46.44,0 90.49,24.25 90.49,80.98 0,56.74 -44.05,80.98 -90.49,80.98 z m 75.35,-800.21 v 560.68 h -148.98 v -560.68 z m 659.09,314.05 c 0,134.06 -83.56,263.44 -258.51,263.44 -160.8,0 -269.88,-120.08 -269.88,-299.7 0,-199.28 123.46,-294.6 274.4,-294.6 96.73,0 172.74,27.37 232.19,77.1 l -58.61,97.55 c -38.93,-31.58 -90.91,-53.77 -151.62,-53.77 -72.3,0 -130.22,32.31 -145.91,127.63 h 370.11 c 5.44,25.97 7.83,55.83 7.83,82.36 z m -379.9,14.31 c 10.5,93.38 56.79,132.88 124.85,132.88 69.85,0 113.85,-49.78 117.21,-132.88 z m 1223.79,-182.94 50.65,-145.42 h 170.01 l -288.78,749 h -157.87 l -280.84,-749 h 164.41 l 49.58,145.42 z m -43.54,125.01 h -206.68 l 102.25,299.88 z m 633.18,-270.43 285.13,749 h -172.5 l -191.41,-569.96 -196.65,569.96 h -172.1 l 283.96,-749 z m 622.7,761.84 c -105.27,0 -188.98,-31.51 -252.36,-72.98 l 55.32,-119 c 42.85,28.19 101,51.02 171.18,51.02 83.45,0 147.11,-32.06 147.11,-112.7 0,-75.62 -57.11,-117.67 -151.2,-198.52 l -209.22,-179.05 v -130.61 h 552.85 v 140.79 h -347.66 l 147.01,122.8 c 112.02,94.38 178.18,166.83 178.18,275.33 0,145.95 -118.59,222.92 -291.2,222.92 z m 957.84,-619.38 h -159.68 v 609.08 h -120.92 l -253.47,-127.87 57.59,-114.07 157.17,64.42 V 1424.83 H 7596.5 v -142.46 h 482.46 v 142.46" /><path
         id="path80"
         style="fill:#2c73c3;fill-opacity:1;fill-rule:nonzero;stroke:none"
         d="m 471.004,1009.66 h 26.828 l 47.156,51.2 h -35.355 l -26.34,-26.3 -25.012,26.3 h -37.019 z m 47.973,-178.461 c -50.465,19.891 -89.407,31.68 -89.407,65.34 0,30.231 24.41,47.629 62.524,47.629 28.101,0 57.351,-9.578 81.168,-25.348 l 18.218,31.899 c -20.8,13.883 -52.777,29.312 -100.496,29.312 -63.886,0 -104.621,-33.992 -104.621,-83.621 0,-53.5 41.875,-73.719 92.809,-92.75 46.871,-17.07 77.223,-30.101 77.223,-60.359 0,-28.27 -21.137,-49.789 -71.625,-49.789 -28.93,0 -62.52,9.019 -88.832,24.129 l -14.762,-34.5 C 411.227,664.391 452,654.23 487.203,654.23 c 69.996,0 112.934,36.579 112.934,92.54 0,44.351 -31.274,65 -81.16,84.441 z m 247.589,69.629 c -33.312,0 -55.414,-13.937 -74.418,-39.637 h -1.246 l -7.765,34.45 H 654.438 V 566.93 h 40.5 v 102.211 c 15.98,-10.211 33.683,-15.551 59.789,-15.551 56.746,0 108.332,49.648 108.332,129.871 0,79.527 -44.243,117.367 -96.489,117.367 z M 758.52,864.84 c 32.703,0 63.031,-24.32 63.031,-84.199 0,-60.301 -37.762,-92.661 -74.113,-92.661 -24.008,0 -37.133,4.758 -52.497,17.27 v 115.648 c 17.145,28.571 36.551,43.942 63.579,43.942 z m 185.531,121.359 c -13.203,0 -26.403,-7.789 -26.403,-25.808 0,-18.02 13.2,-25.813 26.403,-25.813 13.867,0 27.062,7.793 27.062,25.813 0,18.019 -13.195,25.808 -27.062,25.808 z m 20.183,-326.57 V 895.43 H 924.422 V 659.629 Z M 1128,928.961 h 26.83 l 47.15,51.199 h -35.35 l -26.34,-26.289 -25.01,26.289 h -37.03 z m 82.37,-215.492 c -16.59,-13.418 -37.68,-24.321 -65.48,-24.321 -43.22,0 -77.69,32.59 -77.69,89.723 0,57.109 32.72,87.141 76.77,87.141 28.04,0 44.69,-8.621 61.86,-21.723 l 18.81,28.492 c -20.63,17.707 -49.14,28.688 -83.46,28.688 -61.64,0 -115.16,-43.289 -115.16,-122.59 0,-80.789 51.22,-125.289 116.51,-125.289 39.64,0 69.84,15.969 87.28,33.039 z m 220.69,-53.84 h 51.14 l -104.99,136.902 88.25,98.899 h -51.9 l -92.68,-111.7 v 214.301 h -40.5 V 659.629 h 40.5 v 73.781 l 29.96,33.578 z m 187.96,241.84 c -59.43,0 -115.56,-37.328 -115.56,-123.938 0,-86.621 56.13,-123.941 115.56,-123.941 59.44,0 115.57,37.32 115.57,123.941 0,86.61 -56.13,123.938 -115.57,123.938 z m 0,-35.989 c 45.45,0 74.06,-33.011 74.06,-87.949 0,-54.941 -28.61,-87.949 -74.06,-87.949 -45.1,0 -74.06,32.316 -74.06,87.949 0,55.629 28.96,87.949 74.06,87.949 z m 369.22,29.95 H 1944.6 L 1874.01,702 l -69.6,193.641 -42.89,-0.211 91.83,-235.801 h 39.32 z m 143.23,30.761 54.72,54.93 h -52.3 l -32.07,-54.93 z m 105.34,-30.55 H 2194.5 L 2125.08,694 2048.59,895.641 h -42.72 l 99.54,-243.09 -4.65,-12.16 c -10.08,-26.661 -28.88,-41.942 -48.75,-41.942 -12.28,0 -24.25,3.281 -27.66,4.352 l -7.29,-31.16 c 10.1,-3.34 21.23,-5.993 40.96,-5.993 40.54,0 68.39,28.313 86.93,79.25 z m 375.11,-0.211 h -43.63 L 2497.7,702 l -69.6,193.641 -42.89,-0.211 91.83,-235.801 h 39.32 z m 143.24,30.761 54.72,54.93 h -52.3 l -32.07,-54.93 z m 105.34,-30.55 h -42.31 L 2748.77,694 2672.28,895.641 h -42.72 l 99.54,-243.09 -4.65,-12.16 c -10.08,-26.661 -28.89,-41.942 -48.75,-41.942 -12.28,0 -24.25,3.281 -27.66,4.352 l -7.29,-31.16 c 10.1,-3.34 21.23,-5.993 40.95,-5.993 40.55,0 68.4,28.313 86.93,79.25 z m 206.04,-31.84 V 895.43 H 2895.11 V 860.051 H 3016.7 L 2890.9,689.109 v -29.48 h 180.22 v 34.902 h -133.5 z m 208.14,-204.172 h 51.15 l -105,136.902 88.25,98.899 h -51.89 L 3164.5,783.73 V 998.031 H 3124 V 659.629 h 40.5 v 73.781 l 29.96,33.578 z m 286.63,235.801 h -40.4 V 732.16 c -17.37,-21.629 -38.56,-41.621 -69.87,-41.621 -24.24,0 -43.75,13.41 -43.75,56.781 V 895.43 H 3367 V 738.059 c 0,-59.25 33.14,-83.829 76.52,-83.829 38.07,0 61.03,16.61 79.94,40.18 l 8.63,-34.781 h 29.22 z m 327.06,5.609 c -30.14,0 -55.57,-11.711 -78.11,-43.348 -12.74,30.321 -34.31,43.348 -66.9,43.348 -32.63,0 -52.54,-13.25 -70.78,-39.41 h -1.46 l -5.61,33.789 h -31.67 l 0.11,-235.797 h 41.03 v 162.52 c 13.12,24.609 35,42.91 61.89,42.91 20.85,0 41.36,-11.223 41.36,-47.09 v -158.34 h 41.14 v 162.52 c 16.93,28.257 36.59,42.91 62.13,42.91 26.58,0 41.12,-15.68 41.12,-48.473 V 659.621 h 41.04 v 160.258 c 0,53.09 -28.44,81.16 -75.29,81.16 z m 474.03,-5.609 h -43.64 L 4248.17,702 l -69.6,193.641 -42.89,-0.211 91.83,-235.801 h 39.32 z m 235.51,-106.641 c 0,57.41 -34.29,112.68 -104.94,112.68 -65.05,0 -109.56,-46.547 -109.56,-125.188 0,-83.461 52.1,-122.691 111.12,-122.691 44.46,0 74.19,13.57 97.65,33.789 l -19.16,26.262 c -16.55,-13.969 -40.47,-25.879 -72.18,-25.879 -41.57,0 -69.77,21.476 -75.95,73.597 h 170.92 c 1.43,8.352 2.1,18.153 2.1,27.422 z m -174.03,2.582 c 2.89,50.41 30.11,76.66 70.2,76.66 39.85,0 64.72,-31.07 66.65,-76.672 z m 562.21,104.059 h -43.64 L 4871.86,702 l -69.59,193.641 -42.9,-0.211 91.84,-235.801 h 39.31 z M 5221.6,788.789 c 0,57.41 -34.28,112.68 -104.94,112.68 -65.05,0 -109.55,-46.547 -109.55,-125.188 0,-83.461 52.09,-122.691 111.11,-122.691 44.46,0 74.19,13.57 97.65,33.789 l -19.16,26.262 c -16.54,-13.969 -40.46,-25.879 -72.18,-25.879 -41.57,0 -69.77,21.476 -75.94,73.597 h 170.92 c 1.43,8.352 2.09,18.153 2.09,27.422 z m -174.03,2.582 c 2.9,50.41 30.11,76.66 70.21,76.66 39.85,0 64.71,-31.07 66.64,-76.672 z m 277.76,138.551 h 26.83 l 47.15,51.199 h -35.35 l -26.34,-26.293 -25.01,26.293 h -37.03 z m 55.07,-28.453 c -24.82,0 -45.91,-11.879 -57.65,-40.801 h -1.35 l -7.1,34.762 h -30.77 V 659.629 h 40.13 v 153.172 c 11.49,35.527 29.17,50.109 51.66,50.109 9.19,0 17.53,-2.308 23.96,-4.43 l 7.05,37.071 c -6.91,4.371 -17.24,5.91 -25.93,5.91 z m 260.15,-112.68 c 0,57.41 -34.28,112.68 -104.94,112.68 -65.05,0 -109.55,-46.547 -109.55,-125.188 0,-83.461 52.09,-122.691 111.11,-122.691 44.46,0 74.19,13.57 97.65,33.789 l -19.16,26.262 c -16.54,-13.969 -40.46,-25.879 -72.18,-25.879 -41.57,0 -69.77,21.476 -75.94,73.597 h 170.92 c 1.43,8.352 2.09,18.153 2.09,27.422 z m -174.03,2.582 c 2.9,50.41 30.12,76.66 70.21,76.66 39.85,0 64.71,-31.07 66.64,-76.672 z m 261.37,191.399 c -13.55,0 -26.41,-7.79 -26.41,-25.809 0,-18.031 12.86,-25.813 26.41,-25.813 13.51,0 27.06,7.782 27.06,25.813 0,18.019 -13.55,25.809 -27.06,25.809 z m 20.87,-87.34 h -40.5 V 642.52 c 0,-31.84 -14.87,-42.051 -42.46,-42.051 -11.04,0 -21.73,2.832 -23.97,3.57 l -7.48,-32.527 c 10.17,-4.321 22.5,-6.5 38.43,-6.5 42.3,0 75.98,22.16 75.98,67.828 z m 193.2,6.039 c -38.81,0 -61.63,-16.75 -82.52,-42.09 h -1.33 l -6.29,36.039 h -28.29 V 659.621 h 39.81 V 820.07 c 19.47,29.489 43.01,43.7 71.84,43.7 26.9,0 44.72,-11.668 44.72,-52.719 v -151.43 h 40.5 V 823.02 c 0,51.621 -29.76,78.441 -78.44,78.441 z m 253.77,23.66 54.72,54.93 h -52.3 l -32.07,-54.93 z m 96.42,-136.34 c 0,57.41 -34.28,112.68 -104.94,112.68 -65.05,0 -109.55,-46.547 -109.55,-125.188 0,-83.461 52.09,-122.691 111.11,-122.691 44.46,0 74.19,13.57 97.65,33.789 l -19.16,26.262 c -16.54,-13.969 -40.46,-25.879 -72.18,-25.879 -41.57,0 -69.77,21.476 -75.94,73.597 h 170.92 c 1.43,8.352 2.09,18.153 2.09,27.422 z m -174.03,2.582 c 2.9,50.41 30.11,76.66 70.2,76.66 39.86,0 64.72,-31.07 66.65,-76.672 z m 490.48,109.668 c -30.14,0 -55.57,-11.711 -78.11,-43.348 -12.73,30.321 -34.3,43.348 -66.89,43.348 -32.63,0 -52.55,-13.25 -70.78,-39.41 h -1.46 l -5.61,33.789 h -31.67 l 0.11,-235.797 h 41.03 v 162.52 c 13.12,24.609 34.99,42.91 61.89,42.91 20.84,0 41.36,-11.223 41.36,-47.09 v -158.34 h 41.14 v 162.52 c 16.92,28.257 36.58,42.91 62.13,42.91 26.58,0 41.12,-15.68 41.12,-48.473 V 659.621 h 41.03 v 160.258 c 0,53.09 -28.43,81.16 -75.29,81.16 z m 434.56,-37.238 v 31.629 h -171.43 v -35.379 h 121.59 l -125.8,-170.942 v -29.48 h 180.22 v 34.902 h -133.51 z m 157.6,62.39 54.71,54.93 h -52.29 l -32.07,-54.93 z m -11.31,-24.722 c -36.31,0 -66.82,-12.071 -90.05,-31.348 l 17.32,-26.09 c 18.43,14.36 39.99,23.149 69.06,23.149 32.78,0 53.86,-11.43 53.86,-50.5 v -30.239 c -2.55,0.528 -30.17,4.981 -59.05,4.981 -50.22,0 -92.94,-18.594 -92.94,-67.563 0,-49.3 35.85,-70.269 83.72,-70.269 32.83,0 55.98,9.93 73.39,30.238 5.46,-20.398 16.73,-27.148 34.3,-27.148 7.51,0 15.49,1.32 19.74,4.929 l 4.02,26.61 -8.45,-0.348 c -10.32,0 -14.24,7.617 -14.24,18.84 V 817.09 c 0,58.441 -27.46,84.371 -90.69,84.371 z m -4.59,-139.449 c 23.49,0 43.21,-3.059 55.09,-5.532 v -38.367 c -12.7,-21.512 -36.15,-31.949 -63.63,-31.949 -25.12,0 -49.19,9.066 -49.19,38.656 0,27.672 23.4,37.192 57.73,37.192 z m 194.06,220.75 c -13.55,0 -26.41,-7.79 -26.41,-25.809 0,-18.031 12.86,-25.813 26.41,-25.813 13.52,0 27.06,7.782 27.06,25.813 0,18.019 -13.54,25.809 -27.06,25.809 z m 20.87,-87.34 h -40.5 V 642.52 c 0,-31.84 -14.87,-42.051 -42.46,-42.051 -11.03,0 -21.73,2.832 -23.97,3.57 l -7.48,-32.527 c 10.17,-4.321 22.5,-6.5 38.43,-6.5 42.3,0 75.98,22.16 75.98,67.828 z m 329.29,5.609 c -30.13,0 -55.57,-11.711 -78.11,-43.348 -12.73,30.321 -34.3,43.348 -66.89,43.348 -32.63,0 -52.55,-13.25 -70.78,-39.41 h -1.46 l -5.61,33.789 h -31.67 l 0.11,-235.797 h 41.03 v 162.52 c 13.12,24.609 34.99,42.91 61.89,42.91 20.85,0 41.36,-11.223 41.36,-47.09 v -158.34 h 41.14 v 162.52 c 16.92,28.257 36.58,42.91 62.13,42.91 26.58,0 41.12,-15.68 41.12,-48.473 V 659.621 h 41.03 v 160.258 c 0,53.09 -28.43,81.16 -75.29,81.16 z m 342.09,-5.609 h -40.4 V 732.16 c -17.37,-21.629 -38.56,-41.621 -69.88,-41.621 -24.23,0 -43.74,13.41 -43.74,56.781 v 148.11 h -40.29 V 738.059 c 0,-59.25 33.14,-83.829 76.52,-83.829 38.07,0 61.03,16.61 79.94,40.18 l 8.63,-34.781 h 29.22 V 895.43" /></g></g></svg>