<?xml version="1.0" encoding="UTF-8" standalone="no"?>
<svg
   xmlns:dc="http://purl.org/dc/elements/1.1/"
   xmlns:cc="http://creativecommons.org/ns#"
   xmlns:rdf="http://www.w3.org/1999/02/22-rdf-syntax-ns#"
   xmlns:svg="http://www.w3.org/2000/svg"
   xmlns="http://www.w3.org/2000/svg"
   viewBox="0 0 1133.8533 657.64001"
   height="657.64001"
   width="1133.8533"
   xml:space="preserve"
   id="svg1088"
   version="1.1"><metadata
     id="metadata1094"><rdf:RDF><cc:Work
         rdf:about=""><dc:format>image/svg+xml</dc:format><dc:type
           rdf:resource="http://purl.org/dc/dcmitype/StillImage" /><dc:title></dc:title></cc:Work></rdf:RDF></metadata><defs
     id="defs1092"><clipPath
       id="clipPath1106"
       clipPathUnits="userSpaceOnUse"><path
         id="path1104"
         d="M 0,0 H 8503.94 V 4932 H 0 Z" /></clipPath><clipPath
       id="clipPath1116"
       clipPathUnits="userSpaceOnUse"><path
         id="path1114"
         d="m 349.621,2537 h 7787.7 v 1787.69 h -7787.7 z" /></clipPath><clipPath
       id="clipPath1176"
       clipPathUnits="userSpaceOnUse"><path
         id="path1174"
         d="M 0,0 V 4932 H 8504 V 0 Z" /></clipPath><filter
       height="1.0326897"
       y="-0.016344838"
       width="1.01896"
       x="-0.0094799963"
       id="filter4897"
       style="color-interpolation-filters:sRGB"><feGaussianBlur
         id="feGaussianBlur4899"
         stdDeviation="33.59055" /></filter></defs><g
     transform="matrix(1.3333333,0,0,-1.3333333,0,657.64)"
     id="g1096"><g
       transform="scale(0.1)"
       id="g1098"><g
         id="g1100"><g
           style="opacity:0.99;filter:url(#filter4897);stroke:#000000;stroke-opacity:1"
           clip-path="url(#clipPath1106)"
           id="g1102"><path
             id="path1108"
             style="fill:#bb133e;fill-opacity:1;fill-rule:nonzero;stroke:#000000;stroke-opacity:1"
             d="M 0,0 H 8503.94 V 4932.28 H 0 Z" /></g></g><g
         id="g1110"><g
           clip-path="url(#clipPath1116)"
           id="g1112"><path
             id="path1118"
             style="fill:#ffffff;fill-opacity:1;fill-rule:nonzero;stroke:none"
             d="m 1245.66,2973.1 v 59.15 h 172.56 l -339.17,781.95 132.35,304.94 h 68.61 l 471.36,-1086.89 h 143.31 v -59.15 z m -282.406,59.15 V 2973.1 H 596.688 v 59.15 h 143.269 l 142.727,328.95 h 220.526 l 27.47,-63.44 H 924.242 L 808.988,3032.25 Z m 282.406,1292.44 c -494.902,0 -896.039,-401.14 -896.039,-896.01 0,-494.86 401.137,-896 896.039,-896 494.91,0 896.05,401.14 896.05,896 0,494.87 -401.14,896.01 -896.05,896.01" /><path
             id="path1120"
             style="fill:#ffffff;fill-opacity:1;fill-rule:nonzero;stroke:none"
             d="m 2562.45,4020.52 v -367.69 h -77.64 v 367.69 h -136.65 v 67.06 h 350.3 v -67.06 h -136.01" /><path
             id="path1122"
             style="fill:#ffffff;fill-opacity:1;fill-rule:nonzero;stroke:none"
             d="m 2822.63,3936.67 c 29.81,34.15 60.87,49.7 103.74,49.7 62.7,0 110.51,-32.96 110.51,-113.68 v -219.86 h -74.51 v 206.82 c 0,45.34 -28.59,60.23 -58.38,60.23 -29.79,0 -55.28,-15.51 -80.74,-54.02 v -213.03 h -74.53 v 467.05 h 73.91 v -183.21" /><path
             id="path1124"
             style="fill:#ffffff;fill-opacity:1;fill-rule:nonzero;stroke:none"
             d="m 3332.53,3839.78 c -1.89,54.02 -31.1,88.82 -77.64,88.82 -46,0 -77.01,-28.59 -82.65,-88.82 z m 57.72,-150.91 c -33.53,-27.98 -76.4,-45.34 -134.74,-45.34 -85.12,0 -156.51,55.26 -156.51,170.17 0,106.18 62.09,173.9 154,173.9 99.98,0 148.44,-75.78 148.44,-154.03 0,-14.28 -1.24,-30.45 -4.32,-44.11 h -222.99 c 8.68,-62.08 44.72,-85.08 92.53,-85.08 38.51,0 70.19,14.28 92.57,33.53 l 31.02,-49.04" /><path
             id="path1126"
             style="fill:#ffffff;fill-opacity:1;fill-rule:nonzero;stroke:none"
             d="m 3974.02,3698.17 c -34.77,-31.68 -89.45,-54.64 -155.27,-54.64 -109.93,0 -208.06,72.66 -208.71,226.69 -0.62,154 95.07,226.69 213.07,226.69 57.1,0 109.27,-15.55 141.61,-40.39 l -36.66,-60.86 c -29.17,19.88 -65.83,29.83 -103.72,29.83 -70.8,0 -131.65,-48.46 -131.65,-155.27 0,-109.31 62.08,-155.27 132.27,-154.65 43.45,0 78.25,13.04 109.93,39.13 l 39.13,-56.53" /><path
             id="path1128"
             style="fill:#ffffff;fill-opacity:1;fill-rule:nonzero;stroke:none"
             d="m 4090.74,3716.19 h 169.55 v -63.36 h -257.14 v 50.94 l 157.12,211.18 h -152.1 v 63.31 h 244.67 v -54.02 l -162.1,-208.05" /><path
             id="path1130"
             style="fill:#ffffff;fill-opacity:1;fill-rule:nonzero;stroke:none"
             d="m 4534.18,3839.78 c -1.9,54.02 -31.06,88.82 -77.64,88.82 -45.99,0 -77.01,-28.59 -82.62,-88.82 z m 57.73,-150.91 c -33.51,-27.98 -76.42,-45.34 -134.74,-45.34 -85.15,0 -156.52,55.26 -156.52,170.17 0,106.18 62.09,173.9 154.03,173.9 99.93,0 148.41,-75.78 148.41,-154.03 0,-14.28 -1.23,-30.45 -4.31,-44.11 h -223 c 8.69,-62.08 44.72,-85.08 92.57,-85.08 38.49,0 70.13,14.28 92.54,33.53 l 31.02,-49.04" /><path
             id="path1132"
             style="fill:#ffffff;fill-opacity:1;fill-rule:nonzero;stroke:none"
             d="m 4935.94,3690.11 c -26.71,-27.33 -69.55,-46.58 -121.11,-46.58 -91.9,0 -163.97,62.7 -163.97,173.87 0,109.35 74.56,170.2 162.12,170.2 44.68,0 85.7,-13.66 115.53,-39.74 l -30.42,-52.21 c -22.37,17.4 -45.36,27.36 -77.69,27.36 -54.64,0 -94.39,-36.66 -94.39,-105.61 0,-68.3 40.97,-109.28 95.06,-109.28 32.92,0 60.22,13.04 81.99,31.06 l 32.88,-49.07" /><path
             id="path1134"
             style="fill:#ffffff;fill-opacity:1;fill-rule:nonzero;stroke:none"
             d="m 5063.25,3936.67 c 29.79,34.15 60.84,49.7 103.71,49.7 62.75,0 110.52,-32.96 110.52,-113.68 V 3652.83 H 5203 v 206.82 c 0,45.34 -28.61,60.23 -58.4,60.23 -29.79,0 -55.24,-15.51 -80.72,-54.02 v -213.03 h -74.56 v 467.05 h 73.93 v -183.21" /><path
             id="path1136"
             style="fill:#ffffff;fill-opacity:1;fill-rule:nonzero;stroke:none"
             d="m 5664.38,4001.88 -67.09,-193.78 h 134.82 z m -89.42,-257.14 -31.68,-91.91 h -81.95 L 5624,4087.58 h 81.39 l 166.43,-434.75 h -85.07 l -32.28,91.91 h -179.51" /><path
             id="path1138"
             style="fill:#ffffff;fill-opacity:1;fill-rule:nonzero;stroke:none"
             d="m 6164.96,3690.11 c -26.75,-27.33 -69.62,-46.58 -121.15,-46.58 -91.9,0 -163.93,62.7 -163.93,173.87 0,109.35 74.52,170.2 162.08,170.2 44.72,0 85.74,-13.66 115.53,-39.74 l -30.42,-52.21 c -22.37,17.4 -45.36,27.36 -77.64,27.36 -54.65,0 -94.44,-36.66 -94.44,-105.61 0,-68.3 41.01,-109.28 95.06,-109.28 32.88,0 60.22,13.04 81.95,31.06 l 32.96,-49.07" /><path
             id="path1140"
             style="fill:#ffffff;fill-opacity:1;fill-rule:nonzero;stroke:none"
             d="m 6405.9,3783.87 c -14.9,3.74 -38.52,6.83 -65.83,6.83 -39.11,0 -66.45,-11.16 -66.45,-44.07 0,-35.42 27.93,-46.61 56.5,-46.61 32.28,0 60.26,12.43 75.78,39.16 z m -187.6,159.63 c 33.54,27.93 80.13,44.1 128.57,44.1 92.54,0 132.92,-39.74 132.92,-119.27 v -138.48 c 0,-16.13 5.61,-24.85 18.01,-24.85 h 13.68 l -6.21,-48.43 c -8.09,-6.83 -22.99,-8.72 -37.89,-8.72 -24.81,0 -42.24,8.72 -51.52,35.42 -21.77,-24.23 -51.56,-39.74 -97.56,-39.74 -64.6,0 -114.9,30.41 -114.9,100.59 0,67.11 57.18,95.04 127.94,95.04 32.32,0 66.46,-4.98 73.93,-6.83 v 31.68 c 0,49.04 -26.08,62.08 -66.42,62.08 -37.89,0 -67.13,-10.53 -90.68,-29.79 l -29.87,47.2" /><path
             id="path1142"
             style="fill:#ffffff;fill-opacity:1;fill-rule:nonzero;stroke:none"
             d="m 6772.3,3886.35 c -19.28,22.38 -42.24,33.53 -71.44,33.53 -44.09,0 -83.81,-31.68 -83.81,-103.1 0,-72.04 41.57,-104.95 81.95,-104.95 31.06,0 57.14,16.78 73.3,41.01 z m 21.06,-233.52 -9.88,37.89 h -1.27 c -22.32,-27.32 -56.5,-47.19 -96.88,-47.19 -67.68,0 -144.06,48.42 -144.06,172.63 0,117.38 70.77,171.44 142.2,171.44 45.96,0 72.67,-16.78 88.83,-31.06 v 163.34 h 74.52 v -467.05 h -53.46" /><path
             id="path1144"
             style="fill:#ffffff;fill-opacity:1;fill-rule:nonzero;stroke:none"
             d="m 7146.75,3839.78 c -1.86,54.02 -31.02,88.82 -77.64,88.82 -45.91,0 -77.01,-28.59 -82.58,-88.82 z m 57.77,-150.91 c -33.55,-27.98 -76.38,-45.34 -134.78,-45.34 -85.07,0 -156.51,55.26 -156.51,170.17 0,106.18 62.12,173.9 154.02,173.9 100.01,0 148.45,-75.78 148.45,-154.03 0,-14.28 -1.22,-30.45 -4.34,-44.11 h -222.97 c 8.69,-62.08 44.73,-85.08 92.54,-85.08 38.48,0 70.17,14.28 92.53,33.53 l 31.06,-49.04" /><path
             id="path1146"
             style="fill:#ffffff;fill-opacity:1;fill-rule:nonzero;stroke:none"
             d="m 7351.07,3932.93 c 24.85,37.27 54.68,53.44 96.88,53.44 45.96,0 76.38,-18.64 93.76,-59.04 27.31,40.4 62.12,59.04 106.84,59.04 65.83,0 105.62,-40.41 105.62,-111.17 v -222.37 h -75.78 v 213.65 c 0,36.04 -16.8,54.02 -47.22,54.02 -29.79,0 -55.28,-16.75 -74.52,-52.79 v -214.88 h -76.42 v 214.88 c 0,39.13 -21.73,52.79 -47.18,52.79 -31.68,0 -57.76,-21.11 -74.55,-52.79 v -214.88 h -76.38 v 325.43 h 58.4 l 8.06,-45.33 h 2.49" /><path
             id="path1148"
             style="fill:#ffffff;fill-opacity:1;fill-rule:nonzero;stroke:none"
             d="m 8012.46,3632.34 c -26.71,-73.93 -65.83,-111.16 -126.04,-111.16 -34.78,0 -52.83,4.97 -70.22,10.57 l 13.68,56.48 c 9.32,-3.08 27.3,-7.44 43.46,-7.44 23.59,0 46.58,16.75 58.4,47.85 l 5.57,14.27 -134.74,335.97 h 77.01 l 93.76,-259.61 85.07,259.61 h 78.91 l -124.86,-346.54" /><path
             id="path1150"
             style="fill:#ffffff;fill-opacity:1;fill-rule:nonzero;stroke:none"
             d="m 2441.33,3135.78 c 0,-67.68 33.53,-106.19 88.19,-106.19 54.65,0 88.18,39.12 88.18,106.19 0,67.06 -33.53,106.19 -88.18,106.19 -54.66,0 -88.19,-38.47 -88.19,-106.19 z m 252.13,0 c 0,-119.85 -80.1,-172.06 -163.94,-172.06 -83.86,0 -163.98,52.21 -163.98,172.06 0,119.85 80.12,172.05 163.98,172.05 83.84,0 163.94,-52.2 163.94,-172.05" /><path
             id="path1152"
             style="fill:#ffffff;fill-opacity:1;fill-rule:nonzero;stroke:none"
             d="m 2769.84,3351.9 c 0,63.35 39.13,100.01 108.07,100.01 23.61,0 44.1,-3.74 56.49,-9.34 l -11.77,-55.25 c -11.19,3.09 -22.96,4.36 -33.53,4.36 -29.83,0 -44.11,-14.32 -44.11,-41.02 v -52.17 h 75.75 v -63.35 h -75.75 v -262.08 h -75.15 v 262.08 h -45.33 v 63.35 h 45.33 v 53.41" /><path
             id="path1154"
             style="fill:#ffffff;fill-opacity:1;fill-rule:nonzero;stroke:none"
             d="m 3132.5,3069.95 c 36.65,-19.87 81.38,-31.68 121.12,-31.68 59.61,0 86.32,23.61 86.32,56.53 0,36 -39.75,47.81 -102.49,70.8 -70.15,26.7 -122.93,54.64 -122.93,127.3 0,75.78 61.46,122.35 152.14,122.35 65.21,0 114.29,-21.1 143.46,-41.59 l -33.53,-58.38 c -31.02,21.11 -71.42,34.15 -108.04,34.15 -45.37,0 -73.32,-19.87 -73.32,-54.64 0,-40.4 47.86,-51.55 114.3,-76.4 69.53,-26.09 112.4,-53.44 112.4,-118.65 0,-83.81 -65.21,-134.13 -163.95,-134.13 -49.09,0 -106.81,13.05 -150.34,39.75 l 24.86,64.59" /><path
             id="path1156"
             style="fill:#ffffff;fill-opacity:1;fill-rule:nonzero;stroke:none"
             d="m 3752.34,3010.34 c -26.7,-27.32 -69.61,-46.62 -121.16,-46.62 -91.91,0 -163.91,62.74 -163.91,173.91 0,109.31 74.51,170.2 162.06,170.2 44.76,0 85.74,-13.66 115.53,-39.78 l -30.41,-52.17 c -22.38,17.4 -45.38,27.36 -77.64,27.36 -54.67,0 -94.42,-36.66 -94.42,-105.61 0,-68.3 41.02,-109.27 95.04,-109.27 32.88,0 60.24,13 81.96,31.02 l 32.95,-49.04" /><path
             id="path1158"
             style="fill:#ffffff;fill-opacity:1;fill-rule:nonzero;stroke:none"
             d="m 3800.11,2973.06 v 325.43 h 73.93 v -325.43 z m 83.23,413.02 c 0,-29.82 -22.96,-42.25 -46.57,-42.25 -23,0 -45.38,12.43 -45.38,42.25 0,29.79 22.38,42.83 45.38,42.83 23.61,0 46.57,-13.04 46.57,-42.83" /><path
             id="path1160"
             style="fill:#ffffff;fill-opacity:1;fill-rule:nonzero;stroke:none"
             d="m 4181.41,3160.01 c -1.84,54.02 -31.02,88.83 -77.63,88.83 -45.91,0 -77.01,-28.6 -82.57,-88.83 z m 57.77,-150.95 c -33.53,-27.93 -76.36,-45.34 -134.78,-45.34 -85.04,0 -156.51,55.3 -156.51,170.21 0,106.18 62.13,173.9 154.04,173.9 100.02,0 148.44,-75.78 148.44,-154.03 0,-14.28 -1.23,-30.45 -4.36,-44.1 h -222.95 c 8.68,-62.09 44.72,-85.09 92.53,-85.09 38.51,0 70.19,14.28 92.53,33.53 l 31.06,-49.08" /><path
             id="path1162"
             style="fill:#ffffff;fill-opacity:1;fill-rule:nonzero;stroke:none"
             d="m 4381.98,3250.07 c 29.83,36.62 61.52,57.76 112.45,57.76 67.68,0 110.55,-38.51 110.55,-110.54 v -224.23 h -74.55 v 200.61 c 0,49.04 -21.11,63.36 -52.79,63.36 -33.55,0 -62.71,-18.64 -86.93,-53.44 v -210.53 h -73.92 v 325.43 h 50.92 l 11.82,-48.42 h 2.45" /><path
             id="path1164"
             style="fill:#ffffff;fill-opacity:1;fill-rule:nonzero;stroke:none"
             d="m 4952.14,3010.34 c -26.71,-27.32 -69.62,-46.62 -121.19,-46.62 -91.9,0 -163.89,62.74 -163.89,173.91 0,109.31 74.52,170.2 162.08,170.2 44.72,0 85.74,-13.66 115.49,-39.78 l -30.38,-52.17 c -22.41,17.4 -45.41,27.36 -77.64,27.36 -54.69,0 -94.44,-36.66 -94.44,-105.61 0,-68.3 41.01,-109.27 95.06,-109.27 32.88,0 60.22,13 81.95,31.02 l 32.96,-49.04" /><path
             id="path1166"
             style="fill:#ffffff;fill-opacity:1;fill-rule:nonzero;stroke:none"
             d="m 5214.22,3160.01 c -1.9,54.02 -31.06,88.83 -77.64,88.83 -45.99,0 -77.01,-28.6 -82.62,-88.83 z m 57.73,-150.95 c -33.51,-27.93 -76.42,-45.34 -134.78,-45.34 -85.11,0 -156.47,55.3 -156.47,170.21 0,106.18 62.08,173.9 154.02,173.9 99.93,0 148.41,-75.78 148.41,-154.03 0,-14.28 -1.23,-30.45 -4.35,-44.1 h -222.96 c 8.69,-62.09 44.72,-85.09 92.57,-85.09 38.49,0 70.14,14.28 92.5,33.53 l 31.06,-49.08" /><path
             id="path1168"
             style="fill:#ffffff;fill-opacity:1;fill-rule:nonzero;stroke:none"
             d="m 5337.77,3056.91 c 26.08,-19.25 61.44,-29.21 90.68,-29.21 41.57,0 63.34,16.78 63.34,39.78 0,29.79 -36.03,32.26 -82.66,48.43 -54.64,19.25 -85.66,42.25 -85.66,94.38 0,60.89 50.89,97.54 124.19,97.54 44.77,0 86.33,-13.66 113.04,-33.57 l -24.22,-51.55 c -24.85,14.93 -57.77,25.47 -86.93,25.47 -33.54,0 -54.05,-14.28 -54.05,-36 0,-27.94 30.43,-34.8 72.07,-47.23 54.64,-16.13 99.33,-36.62 99.33,-95 0,-67.1 -53.42,-106.23 -132.92,-106.23 -45.28,0 -90.04,14.94 -116.12,35.42 l 19.91,57.77" /></g></g><g
         id="g1170"><g
           clip-path="url(#clipPath1176)"
           id="g1172"><path
             id="path1178"
             style="fill:none;stroke:#ffffff;stroke-width:80;stroke-linecap:butt;stroke-linejoin:miter;stroke-miterlimit:4;stroke-dasharray:none;stroke-opacity:1"
             d="M 2352.76,2577 H 8143.94" /><g
             transform="scale(10)"
             id="g1180"><text
               id="text1184"
               style="font-variant:normal;font-weight:bold;font-size:111px;font-family:MotivaSans;-inkscape-font-specification:MotivaSans-Bold;writing-mode:lr-tb;fill:#ffffff;fill-opacity:1;fill-rule:nonzero;stroke:none"
               transform="matrix(1,0,0,-1,36,131.961)"><tspan
                 id="tspan1182"
                 y="0"
                 x="0 65.489601 111.4438 155.8448 219.0038 263.29297 327.22778 393.9386 460.53757 490.39658 558.88403 639.35803 711.28601">Strategy AV21</tspan></text>
<text
               id="text1188"
               style="font-variant:normal;font-weight:normal;font-size:48.20000076px;font-family:MotivaSans;-inkscape-font-specification:MotivaSans-Regular;writing-mode:lr-tb;fill:#ffffff;fill-opacity:1;fill-rule:nonzero;stroke:none"
               transform="matrix(1,0,0,-1,36,67.218)"><tspan
                 id="tspan1186"
                 y="0"
                 x="0 25.401014 54.995815 83.626617 97.508217 115.00512 143.15392 165.95213 194.10092 221.14061 238.63753 264.42392 293.29572 307.17731 319.80573 348.67752 362.55911 381.01971 409.6987 437.8475 451.7291 480.35992 508.94186 538.15051 550.53729 563.16571 588.95209 602.83374 615.4621 644.23749 661.63818 689.78693 707.28387 735.43268 758.32715">Top research in the public interest</tspan></text>
</g></g></g></g></g></svg>